<svg width="363" height="226" viewBox="0 0 363 226" fill="none" xmlns="http://www.w3.org/2000/svg">
<ellipse cx="181" cy="159.5" rx="182" ry="66.5" fill="#FAFAFA"/>
<g clip-path="url(#clip0)">
<path d="M218.003 185H35V1.13477L218.003 50.5059V185Z" fill="#F2F2F2"/>
<path d="M195.823 120.023H52.0352V178.191H195.823V120.023Z" fill="#1B5730"/>
<path d="M164.683 109.141C175.726 109.141 184.678 101.368 184.678 91.7799C184.678 82.1917 175.726 74.4189 164.683 74.4189C153.641 74.4189 144.688 82.1917 144.688 91.7799C144.688 101.368 153.641 109.141 164.683 109.141Z" fill="#FFAE3A"/>
<path d="M164.502 123.176L164.666 91.6846" stroke="#1B5730" stroke-width="2" stroke-miterlimit="10"/>
<path d="M164.666 96.1383C167.499 96.1383 169.795 94.1445 169.795 91.6849C169.795 89.2253 167.499 87.2314 164.666 87.2314C161.833 87.2314 159.537 89.2253 159.537 91.6849C159.537 94.1445 161.833 96.1383 164.666 96.1383Z" fill="#1B5730"/>
<path d="M164.565 111.093C164.565 111.093 163.903 97.4073 148.874 98.9389Z" fill="#1B5730"/>
<path d="M80.9217 74.2854C91.9646 74.2854 100.917 66.5127 100.917 56.9245C100.917 47.3363 91.9646 39.5635 80.9217 39.5635C69.8788 39.5635 60.9268 47.3363 60.9268 56.9245C60.9268 66.5127 69.8788 74.2854 80.9217 74.2854Z" fill="#FFAE3A"/>
<path d="M79.79 121.017L80.9408 56.9053" stroke="#1B5730" stroke-width="2" stroke-miterlimit="10"/>
<path d="M80.9406 61.359C83.7733 61.359 86.0697 59.3652 86.0697 56.9056C86.0697 54.446 83.7733 52.4521 80.9406 52.4521C78.1079 52.4521 75.8115 54.446 75.8115 56.9056C75.8115 59.3652 78.1079 61.359 80.9406 61.359Z" fill="#1B5730"/>
<path d="M80.6148 75.04C80.6148 75.04 80.1277 61.3483 65.0801 62.7354Z" fill="#1B5730"/>
<path d="M79.8113 119.793C79.8113 119.793 83.5805 93.5271 64.5547 91.9971" stroke="#1B5730" stroke-width="2" stroke-miterlimit="10"/>
<path d="M64.5549 96.4508C67.3876 96.4508 69.684 94.4569 69.684 91.9974C69.684 89.5378 67.3876 87.5439 64.5549 87.5439C61.7222 87.5439 59.4258 89.5378 59.4258 91.9974C59.4258 94.4569 61.7222 96.4508 64.5549 96.4508Z" fill="#1B5730"/>
<path d="M123.921 35.7435C134.964 35.7435 143.916 27.9707 143.916 18.3825C143.916 8.79426 134.964 1.02148 123.921 1.02148C112.878 1.02148 103.926 8.79426 103.926 18.3825C103.926 27.9707 112.878 35.7435 123.921 35.7435Z" fill="#FFAE3A"/>
<path d="M123.934 123.489V18.4463" stroke="#1B5730" stroke-width="2" stroke-miterlimit="10"/>
<path d="M124.403 21.9977C127.235 21.9977 129.532 20.0038 129.532 17.5443C129.532 15.0847 127.235 13.0908 124.403 13.0908C121.57 13.0908 119.273 15.0847 119.273 17.5443C119.273 20.0038 121.57 21.9977 124.403 21.9977Z" fill="#1B5730"/>
<path d="M108.18 98.8493C111.013 98.8493 113.309 96.8554 113.309 94.3958C113.309 91.9363 111.013 89.9424 108.18 89.9424C105.347 89.9424 103.051 91.9363 103.051 94.3958C103.051 96.8554 105.347 98.8493 108.18 98.8493Z" fill="#1B5730"/>
<path d="M123.933 41.1444C123.933 41.1444 123.201 27.461 108.18 29.0515Z" fill="#1B5730"/>
<path d="M123.933 79.9354C123.933 79.9354 123.201 66.252 108.18 67.8425Z" fill="#1B5730"/>
<path d="M123.933 122.265C123.933 122.265 127.231 95.6679 108.18 94.3955" stroke="#1B5730" stroke-width="2" stroke-miterlimit="10"/>
<path d="M140.001 57.0739C142.834 57.0739 145.13 55.08 145.13 52.6204C145.13 50.1609 142.834 48.167 140.001 48.167C137.168 48.167 134.872 50.1609 134.872 52.6204C134.872 55.08 137.168 57.0739 140.001 57.0739Z" fill="#1B5730"/>
<path d="M124.248 79.0718C124.248 79.0718 120.951 53.8935 140.002 52.6211" stroke="#1B5730" stroke-width="2" stroke-miterlimit="10"/>
<path d="M166.696 42.5618C165.274 42.5618 163.884 42.1957 162.702 41.5098C161.52 40.8239 160.598 39.849 160.054 38.7083C159.51 37.5677 159.368 36.3126 159.645 35.1017C159.922 33.8908 160.607 32.7785 161.613 31.9055C162.618 31.0325 163.899 30.438 165.294 30.1971C166.688 29.9562 168.134 30.0799 169.447 30.5523C170.761 31.0248 171.884 31.8249 172.674 32.8514C173.464 33.878 173.886 35.0849 173.886 36.3195C173.883 37.9745 173.125 39.5612 171.778 40.7314C170.43 41.9017 168.602 42.5599 166.696 42.5618V42.5618ZM166.696 30.6446C165.404 30.6446 164.14 30.9775 163.065 31.601C161.99 32.2246 161.153 33.1109 160.658 34.1478C160.163 35.1848 160.034 36.3258 160.286 37.4266C160.538 38.5274 161.161 39.5386 162.075 40.3322C162.989 41.1259 164.153 41.6663 165.421 41.8853C166.689 42.1042 168.003 41.9919 169.197 41.5624C170.392 41.1328 171.412 40.4055 172.131 39.4723C172.849 38.539 173.232 37.4419 173.232 36.3195C173.23 34.8149 172.541 33.3725 171.316 32.3087C170.09 31.2448 168.429 30.6464 166.696 30.6446Z" fill="#1B5730"/>
<path d="M53.6269 12.4847C52.205 12.4847 50.815 12.1186 49.6327 11.4326C48.4504 10.7467 47.5289 9.77181 46.9848 8.63117C46.4406 7.49054 46.2982 6.23541 46.5756 5.02452C46.8531 3.81362 47.5378 2.70135 48.5432 1.82834C49.5487 0.955334 50.8297 0.360809 52.2243 0.119947C53.6189 -0.120915 55.0645 0.0027055 56.3782 0.475173C57.6919 0.94764 58.8147 1.74773 59.6047 2.77428C60.3946 3.80083 60.8163 5.00772 60.8163 6.24234C60.8141 7.89733 60.056 9.48401 58.7082 10.6543C57.3604 11.8245 55.533 12.4828 53.6269 12.4847V12.4847ZM53.6269 0.567488C52.3342 0.567488 51.0706 0.900311 49.9958 1.52387C48.921 2.14743 48.0833 3.03372 47.5886 4.07066C47.0939 5.10761 46.9645 6.24863 47.2167 7.34944C47.4689 8.45026 48.0913 9.46142 49.0054 10.2551C49.9194 11.0487 51.084 11.5892 52.3518 11.8081C53.6197 12.0271 54.9338 11.9147 56.128 11.4852C57.3223 11.0557 58.3431 10.3283 59.0612 9.39511C59.7794 8.46189 60.1627 7.36471 60.1627 6.24234C60.1607 4.7378 59.4715 3.29538 58.2462 2.23151C57.021 1.16765 55.3597 0.569208 53.6269 0.567488V0.567488Z" fill="#1B5730"/>
<path d="M218.003 104.985C216.581 104.985 215.191 104.619 214.009 103.933C212.826 103.247 211.905 102.272 211.361 101.131C210.817 99.9905 210.674 98.7354 210.952 97.5245C211.229 96.3136 211.914 95.2013 212.919 94.3283C213.925 93.4553 215.206 92.8608 216.6 92.6199C217.995 92.3791 219.44 92.5027 220.754 92.9752C222.068 93.4476 223.191 94.2477 223.981 95.2743C224.771 96.3008 225.192 97.5077 225.192 98.7423C225.19 100.397 224.432 101.984 223.084 103.154C221.736 104.325 219.909 104.983 218.003 104.985ZM218.003 93.0675C216.71 93.0675 215.447 93.4003 214.372 94.0239C213.297 94.6474 212.459 95.5337 211.965 96.5707C211.47 97.6076 211.34 98.7486 211.593 99.8494C211.845 100.95 212.467 101.961 213.381 102.755C214.295 103.549 215.46 104.089 216.728 104.308C217.996 104.527 219.31 104.415 220.504 103.985C221.698 103.556 222.719 102.828 223.437 101.895C224.155 100.962 224.539 99.8647 224.539 98.7423C224.537 97.2378 223.847 95.7954 222.622 94.7315C221.397 93.6676 219.736 93.0692 218.003 93.0675V93.0675Z" fill="#1B5730"/>
<path d="M187.612 56.181C189.958 56.181 191.86 54.5295 191.86 52.4924C191.86 50.4552 189.958 48.8037 187.612 48.8037C185.265 48.8037 183.363 50.4552 183.363 52.4924C183.363 54.5295 185.265 56.181 187.612 56.181Z" fill="#1B5730"/>
<path d="M220.944 123.428C223.29 123.428 225.192 121.777 225.192 119.739C225.192 117.702 223.29 116.051 220.944 116.051C218.597 116.051 216.695 117.702 216.695 119.739C216.695 121.777 218.597 123.428 220.944 123.428Z" fill="#1B5730"/>
<path d="M218.003 185V120.023H187.611C187.611 150.425 159.227 175.069 124.214 175.069C89.2005 175.069 60.8165 150.425 60.8165 120.023H35V185H218.003Z" fill="#1B5730"/>
<path d="M124.214 175.069C159.227 175.069 187.611 150.425 187.611 120.023H60.8164C60.8164 150.425 89.2004 175.069 124.214 175.069Z" fill="#FFAE3A"/>
<path d="M304.205 143.164C335.449 129.442 347.965 96.3262 332.161 69.1982L219.018 118.891C234.822 146.019 272.961 156.886 304.205 143.164Z" fill="#1B5730"/>
<path d="M306.496 40.7176C306.707 40.5934 306.911 40.4608 307.108 40.3223C306.696 41.3941 306.032 42.3797 305.157 43.2165V43.2165C304.952 43.4122 304.734 43.5953 304.51 43.7724C304.505 43.7275 304.5 43.6827 304.498 43.6378C304.471 43.2037 304.508 42.7469 304.515 42.2999C305.294 41.8968 305.969 41.3581 306.496 40.7176V40.7176Z" fill="url(#paint0_linear)"/>
<path d="M309.563 24.8873C310.039 24.1913 310.313 23.4056 310.362 22.5975C310.412 21.7894 310.235 20.9829 309.847 20.2471C309.459 19.5113 308.871 18.8681 308.134 18.3726C307.397 17.8771 306.533 17.5441 305.615 17.402C304.698 17.2599 303.754 17.313 302.865 17.5568C301.977 17.8006 301.169 18.2277 300.512 18.8017C299.855 19.3756 299.368 20.0793 299.093 20.8524C298.817 21.6256 298.762 22.4451 298.931 23.241C297.282 23.9228 295.902 25.0129 294.965 26.374C294.027 27.7352 293.574 29.3066 293.663 30.8906C292.875 31.9406 292.381 33.1358 292.219 34.3811C292.057 35.6263 292.232 36.8872 292.73 38.0633C293.228 39.2395 294.035 40.2984 295.088 41.1558C296.141 42.0133 297.409 42.6455 298.793 43.0023C300.176 43.359 301.637 43.4303 303.058 43.2107C304.478 42.991 305.821 42.4863 306.977 41.7368C308.134 40.9873 309.073 40.0138 309.72 38.8936C310.367 37.7734 310.704 36.5375 310.704 35.2844C310.704 35.156 310.7 35.0285 310.693 34.9016C311.843 33.3693 312.358 31.5425 312.152 29.7223C311.947 27.902 311.034 26.1967 309.563 24.8873Z" fill="#2F2E41"/>
<g opacity="0.1">
<path opacity="0.1" d="M298.854 21.9701C298.879 21.9591 298.904 21.9465 298.93 21.9357C298.912 21.849 298.899 21.7609 298.886 21.6729C298.883 21.6912 298.879 21.7093 298.876 21.7277C298.865 21.8089 298.86 21.8894 298.854 21.9701Z" fill="black"/>
<path opacity="0.1" d="M312.129 30.1659C311.96 31.39 311.468 32.5638 310.692 33.5961C310.699 33.7229 310.703 33.8504 310.703 33.9788C310.703 36.0577 309.777 38.0561 308.119 39.5556C306.461 41.0551 304.198 41.9394 301.806 42.0232C299.414 42.1071 297.077 41.384 295.284 40.0055C293.492 38.627 292.383 36.6999 292.191 34.6277C292.171 34.8444 292.158 35.063 292.158 35.2843C292.158 37.4196 293.135 39.4674 294.874 40.9772C296.613 42.4871 298.971 43.3353 301.431 43.3353C303.89 43.3353 306.248 42.4871 307.987 40.9772C309.726 39.4674 310.703 37.4196 310.703 35.2843C310.703 35.156 310.699 35.0285 310.692 34.9016C311.816 33.4057 312.334 31.6268 312.162 29.8467C312.152 29.953 312.144 30.0591 312.129 30.1659Z" fill="black"/>
<path opacity="0.1" d="M310.323 21.667C310.223 22.3437 309.964 22.9953 309.562 23.5816C309.725 23.7262 309.878 23.8777 310.027 24.0322C310.343 23.2759 310.445 22.4646 310.323 21.667H310.323Z" fill="black"/>
</g>
<path d="M272.197 111.265C272.241 111.723 272.384 112.17 272.619 112.582C272.738 112.788 272.911 112.965 273.125 113.101C273.339 113.237 273.586 113.327 273.848 113.364C274.328 113.366 274.8 113.248 275.204 113.022C276.03 112.648 276.886 112.213 277.317 111.496C277.734 110.802 277.674 109.974 277.604 109.193L277.05 103.054C275.714 103.022 274.372 103.023 273.038 103.086C271.717 103.148 271.485 103.419 271.668 104.539C272.035 106.769 271.856 109.034 272.197 111.265Z" fill="#FBBEBE"/>
<path d="M311.377 115.414L314.554 119.871C314.691 120.131 314.939 120.333 315.246 120.436C315.474 120.464 315.706 120.429 315.91 120.336C316.969 119.933 317.78 119.17 318.559 118.427C319.087 117.923 319.633 117.392 319.831 116.732C319.933 116.375 319.929 116 319.818 115.645C319.707 115.289 319.493 114.964 319.196 114.701C318.825 114.42 318.424 114.171 317.998 113.957C315.486 112.486 314.352 109.692 311.873 108.18C311.729 108.077 311.555 108.011 311.37 107.992C311.186 108.002 311.008 108.053 310.854 108.142C309.724 108.68 308.594 109.218 307.464 109.756C305.996 110.453 306.462 110.535 307.577 111.286C309.219 112.392 310.244 113.939 311.377 115.414Z" fill="#FBBEBE"/>
<path d="M279.094 107.714C278.628 107.587 278.107 107.472 277.668 107.658C277.463 107.767 277.289 107.915 277.16 108.091C277.032 108.268 276.951 108.467 276.925 108.675C276.837 109.085 276.847 109.51 276.716 109.911C276.495 110.587 275.902 111.115 275.33 111.613C275.099 111.852 274.799 112.033 274.46 112.138C274.002 112.24 273.514 112.054 273.049 112.125C272.777 112.185 272.53 112.309 272.334 112.483C272.137 112.656 272 112.873 271.935 113.11C271.814 113.585 271.796 114.075 271.881 114.556L272.241 117.977C272.305 118.394 272.31 118.817 272.256 119.235C272.123 119.987 271.62 120.647 271.34 121.368C271.061 122.09 271.076 123.01 271.776 123.469C272.02 123.611 272.301 123.696 272.593 123.719C272.885 123.741 273.179 123.699 273.448 123.597C273.984 123.388 274.457 123.075 274.834 122.684C276.974 120.657 277.93 117.913 279.594 115.574C280.019 115.033 280.399 114.466 280.732 113.879C280.96 113.424 281.105 112.942 281.29 112.473C281.546 111.846 281.852 111.236 282.207 110.647C282.405 110.31 283.163 109.499 283.004 109.123C282.732 108.481 279.815 107.912 279.094 107.714Z" fill="#2F2E41"/>
<path d="M317.685 117.152C317.204 117.936 316.4 118.534 315.434 118.828C315.153 118.893 314.892 119.011 314.668 119.171C314.521 119.327 314.43 119.517 314.407 119.717C314.383 119.918 314.427 120.12 314.535 120.298C314.756 120.652 315.044 120.971 315.386 121.242C317.307 123.007 318.578 125.231 319.035 127.627C319.149 128.231 319.223 128.874 319.64 129.368C320.454 130.334 322.187 130.271 323.41 129.72C323.784 129.572 324.109 129.343 324.354 129.057C324.557 128.746 324.687 128.402 324.735 128.047C324.956 127.166 325.078 126.268 325.099 125.367C325.075 123.666 324.339 122.04 323.988 120.366C323.489 117.991 323.739 115.432 322.465 113.286C322.338 113.034 322.138 112.815 321.883 112.651C321.565 112.506 321.207 112.436 320.847 112.449C319.696 112.408 318.545 112.4 317.392 112.423C317.069 112.429 316.692 112.465 316.525 112.705C316.354 112.95 316.503 113.263 316.653 113.518C317.366 114.73 318.522 115.699 317.685 117.152Z" fill="#2F2E41"/>
<path d="M290.345 74.5774C290.023 74.8081 289.804 75.1297 289.728 75.486C289.652 75.8423 289.722 76.2105 289.927 76.5261C290.183 76.8933 290.641 77.2351 290.54 77.655C290.436 78.0908 289.819 78.2389 289.313 78.3088C284.85 78.9251 280.507 80.0594 276.181 81.1905L271.642 82.3769C270.334 82.719 269.002 83.0704 267.872 83.7368C266.834 84.3506 266.013 85.2023 265.5 86.1971C264.981 87.2072 264.803 88.3198 264.617 89.4141C263.936 93.4408 263.065 97.5074 260.996 101.159L272.003 104.293C273.07 104.633 274.176 104.875 275.301 105.014C276.374 105.091 277.454 105.046 278.514 104.879C278.445 102.745 278.404 100.546 278.335 98.4123C278.328 97.7383 278.278 97.0651 278.184 96.3959C278.019 95.3732 277.654 94.3783 277.54 93.3504C278.048 92.9867 278.786 93.0772 279.444 93.0938C280.945 93.1318 282.411 92.6786 283.747 92.0812C285.082 91.4838 286.324 90.7393 287.652 90.1295C289.864 89.1136 292.381 88.4303 294.07 86.8264C293.209 89.6734 291.177 92.1542 290.784 95.0777C290.387 98.0314 291.771 100.922 293.126 103.653L297.457 112.379C297.935 113.342 298.572 114.425 299.75 114.655C300.485 114.798 301.243 114.559 301.924 114.282C305.91 112.661 309.099 109.614 313.354 108.64C313.037 106.81 311.372 105.297 310.429 103.638C309.634 102.239 309.374 100.663 308.844 99.1714C308.314 97.6803 307.403 96.1691 305.802 95.4604C305.042 95.1238 304.017 94.8309 303.946 94.0925C303.942 93.8553 303.999 93.6204 304.116 93.4057C304.686 92.1599 305.571 91.0411 306.706 90.1319C306.852 90.0342 306.969 89.9073 307.046 89.7619C307.089 89.618 307.097 89.4683 307.072 89.3215C306.991 88.1334 307.724 87.022 308.541 86.0667C309.359 85.1113 310.303 84.202 310.764 83.0812C311.556 81.1539 310.77 79.036 309.987 77.106C309.67 76.326 309.337 75.5218 308.687 74.9175C307.667 73.97 306.078 73.6969 304.594 73.5556C299.793 73.0986 294.159 72.0059 290.345 74.5774Z" fill="#2F2E41"/>
<g opacity="0.1">
<path opacity="0.1" d="M289.845 75.1539C290.006 75.1254 290.156 75.0598 290.278 74.9639C290.401 74.868 290.491 74.7454 290.54 74.6089C290.553 74.5554 290.556 74.5007 290.551 74.4463C290.482 74.4898 290.413 74.5318 290.345 74.5776C290.124 74.7295 289.952 74.9279 289.845 75.1539Z" fill="black"/>
</g>
<path d="M297.931 44.3731C297.989 45.3251 297.658 46.3439 296.815 46.9548C296.544 47.1507 296.23 47.2992 295.97 47.5054C295.739 47.7116 295.562 47.9591 295.452 48.2305C295.342 48.502 295.302 48.791 295.334 49.0775C295.366 49.3639 295.469 49.6409 295.636 49.8892C295.804 50.1375 296.032 50.3511 296.304 50.5152C297.179 50.9789 298.292 50.8538 299.302 50.7016C300.65 50.5381 301.97 50.2389 303.238 49.81C304.512 49.3753 305.598 48.6036 306.34 47.6041C305.24 47.0716 304.641 45.9531 304.574 44.8612C304.507 43.7677 304.852 42.527 304.055 41.6788C303.287 40.8619 301.841 40.8679 300.671 41.1483C300.083 41.289 299.514 41.4837 298.926 41.6214C298.628 41.6912 297.643 41.693 297.448 41.8837C297.094 42.2303 297.898 43.8222 297.931 44.3731Z" fill="#FBBEBE"/>
<path opacity="0.1" d="M297.931 44.3731C297.989 45.3251 297.658 46.3439 296.815 46.9548C296.544 47.1507 296.23 47.2992 295.97 47.5054C295.739 47.7116 295.562 47.9591 295.452 48.2305C295.342 48.502 295.302 48.791 295.334 49.0775C295.366 49.3639 295.469 49.6409 295.636 49.8892C295.804 50.1375 296.032 50.3511 296.304 50.5152C297.179 50.9789 298.292 50.8538 299.302 50.7016C300.65 50.5381 301.97 50.2389 303.238 49.81C304.512 49.3753 305.598 48.6036 306.34 47.6041C305.24 47.0716 304.641 45.9531 304.574 44.8612C304.507 43.7677 304.852 42.527 304.055 41.6788C303.287 40.8619 301.841 40.8679 300.671 41.1483C300.083 41.289 299.514 41.4837 298.926 41.6214C298.628 41.6912 297.643 41.693 297.448 41.8837C297.094 42.2303 297.898 43.8222 297.931 44.3731Z" fill="black"/>
<path d="M301.306 44.3149C304.904 44.3149 307.822 41.782 307.822 38.6575C307.822 35.5329 304.904 33 301.306 33C297.707 33 294.79 35.5329 294.79 38.6575C294.79 41.782 297.707 44.3149 301.306 44.3149Z" fill="#FBBEBE"/>
<path d="M280.731 82.0615C280.614 82.5084 280.406 82.9338 280.117 83.3176C279.358 84.4896 279.083 85.8521 279.34 87.1785C279.477 87.8362 279.799 88.4544 280.277 88.9786C280.754 89.5028 281.373 89.917 282.079 90.1845C282.688 90.393 283.444 90.448 283.947 90.083C283.077 89.0998 283.03 87.7575 283.082 86.5181C283.067 86.2868 283.131 86.0566 283.265 85.8564C283.301 85.8087 283.348 85.7679 283.402 85.7365C283.457 85.7051 283.518 85.6838 283.583 85.6738C283.647 85.6639 283.713 85.6655 283.777 85.6787C283.841 85.6919 283.901 85.7162 283.953 85.7503C283.931 86.5306 284.105 87.3058 284.462 88.022C284.6 88.2975 284.836 88.6018 285.181 88.5939C285.678 88.5827 285.812 87.9993 285.793 87.5686C285.716 85.814 285.617 83.9865 284.643 82.4477C284.286 81.8845 283.811 81.3556 283.675 80.7237C283.669 80.5046 283.582 80.2931 283.426 80.1203C283.319 80.0471 283.193 79.9963 283.06 79.972C282.499 79.8344 281.171 79.4058 280.708 79.8621C280.212 80.3513 280.821 81.4766 280.731 82.0615Z" fill="#FBBEBE"/>
<path d="M290.407 52.0032C289.66 51.9302 289.07 52.524 288.661 53.0717C287.135 55.1138 286.038 57.3738 285.418 59.7474C285.102 60.959 284.904 62.2173 284.241 63.3183C284.082 63.5469 283.953 63.7907 283.858 64.0449C283.802 64.4331 283.782 64.8247 283.799 65.2158C283.73 65.9227 283.249 66.5507 283.087 67.2461C282.991 67.6606 283.01 68.0897 282.925 68.506C282.775 69.235 282.313 69.8834 282.018 70.5782C281.499 71.8015 281.503 73.1446 281.121 74.4055C281.074 74.6133 280.971 74.8084 280.819 74.9743C280.56 75.2215 280.145 75.2819 279.806 75.4403C279.539 75.5821 279.311 75.7719 279.135 75.9968C278.96 76.2217 278.842 76.4765 278.789 76.7443C278.688 77.2798 278.676 77.8252 278.754 78.3637L279.054 81.7102C279.362 81.5977 279.564 81.2944 279.821 81.1086C280.292 80.7685 280.984 80.8448 281.587 80.9396L282.465 81.0779C283.364 81.2192 284.34 81.3994 284.917 82.0142C285.375 81.3925 285.113 80.4761 285.817 80.0625C286.045 79.9279 286.329 79.8824 286.57 79.7654C286.797 79.6377 286.986 79.4643 287.119 79.2599C287.253 79.0555 287.328 78.8261 287.337 78.5912C287.351 78.1219 287.276 77.6537 287.117 77.2052C288.245 76.7916 288.944 75.7999 289.386 74.8082C289.871 73.6079 290.222 72.3698 290.435 71.111C291.454 66.1378 292.385 61.129 292.478 56.0784C292.542 55.2335 292.435 54.3855 292.16 53.5729C291.839 52.7755 291.374 52.0976 290.407 52.0032Z" fill="#D0CDE1"/>
<path d="M306.834 46.5869C305.759 47.5664 304.384 48.2596 302.871 48.5854C301.367 48.9067 299.83 49.1033 298.282 49.1723C297.807 49.2416 297.318 49.2049 296.863 49.0659C296.426 48.8938 296.093 48.444 296.271 48.0566C296.357 47.9368 296.416 47.8034 296.442 47.6641C296.435 47.3195 295.851 47.2909 295.472 47.3928C292.963 48.0664 290.558 49.4003 289.4 51.4464C288.746 52.6022 288.531 53.9019 288.323 55.177C287.778 58.5307 287.234 61.9574 287.965 65.2844C288.355 67.0585 289.104 68.7877 289.151 70.5933C289.177 71.6051 288.981 72.613 288.99 73.6251C288.955 73.9795 289.065 74.3334 289.299 74.6253C289.479 74.8072 289.751 74.922 289.877 75.1359C290.088 75.4935 289.806 75.9844 290.083 76.3059C290.425 76.7019 291.137 76.4176 291.607 76.1383C293.972 74.7442 296.827 74.12 299.67 74.3759C303.085 74.6941 306.478 76.2744 309.79 75.4846C309.62 75.2688 309.473 75.0396 309.351 74.8002C307.699 70.0882 307.811 64.8213 310.283 60.3881C311.127 58.8736 312.248 57.4302 312.571 55.7712C312.701 54.9952 312.712 54.2075 312.602 53.4292C312.428 51.9231 312.014 50.4045 311.072 49.1312C310.129 47.858 308.569 46.736 306.834 46.5869Z" fill="#D0CDE1"/>
<path d="M291.071 83.5174C290.806 84.1327 290.678 84.7863 290.696 85.4431C290.671 86.0713 290.707 86.7003 290.804 87.3233C290.859 87.8558 291.078 88.3657 291.437 88.8001C291.621 89.0138 291.873 89.1756 292.163 89.2649C292.452 89.3543 292.765 89.3672 293.063 89.3022C293.298 89.2176 293.508 89.0887 293.677 88.9248C293.847 88.7609 293.973 88.5661 294.045 88.3548C294.185 87.9322 294.288 87.5009 294.353 87.0647C294.638 85.7805 295.415 84.5753 295.429 83.2674C295.439 83.1123 295.411 82.957 295.346 82.8123C295.063 82.2748 293.679 81.6715 293.003 81.762C292.157 81.8752 291.378 82.8966 291.071 83.5174Z" fill="#FBBEBE"/>
<path opacity="0.1" d="M309.874 51.3633C309.745 52.4881 310.998 53.3359 311.494 54.3813C311.696 54.8693 311.811 55.3814 311.835 55.8997C312.184 59.4964 311.913 63.1141 311.643 66.7158C311.593 67.9148 311.422 69.1078 311.131 70.2806C310.431 72.7419 308.711 74.8754 307.025 76.945C306.445 77.7748 305.559 78.4094 304.511 78.7454L298.725 81.1788C298.001 81.4567 297.312 81.8006 296.67 82.2048C295.926 82.7114 295.341 83.3728 294.969 84.1279C293.847 83.6299 292.681 83.1828 291.559 82.6848C291.296 82.5683 291.003 82.4162 290.957 82.1631C290.896 81.8235 291.305 81.5836 291.587 81.3419C292.113 80.8896 292.275 80.2194 292.56 79.626C293.491 77.6873 295.833 76.4464 296.678 74.4781C297.002 73.7217 297.102 72.8669 297.677 72.2329C298.007 71.9152 298.377 71.6313 298.781 71.3871C299.673 70.7299 300.492 70.0017 301.228 69.212C301.559 68.9142 301.829 68.5702 302.028 68.1945C302.281 67.6359 302.206 67.013 302.219 66.4129C302.262 64.4483 303.285 62.6162 303.911 60.728C304.501 58.9498 304.747 57.0846 305.521 55.3604C306.295 53.6362 307.811 51.8268 309.874 51.3633Z" fill="black"/>
<path d="M310.626 51.3633C310.497 52.4881 311.75 53.3359 312.246 54.3813C312.448 54.8693 312.563 55.3814 312.587 55.8997C312.936 59.4964 312.665 63.1141 312.395 66.7158C312.345 67.9148 312.174 69.1078 311.883 70.2806C311.183 72.7419 309.463 74.8754 307.777 76.945C307.197 77.7748 306.311 78.4094 305.263 78.7454L299.477 81.1788C298.753 81.4567 298.064 81.8006 297.422 82.2048C296.678 82.7114 296.093 83.3728 295.721 84.1279C294.599 83.6299 293.433 83.1828 292.311 82.6848C292.048 82.5683 291.755 82.4162 291.709 82.1631C291.648 81.8235 292.057 81.5836 292.338 81.3419C292.865 80.8896 293.027 80.2194 293.312 79.626C294.243 77.6873 296.585 76.4464 297.43 74.4781C297.754 73.7217 297.854 72.8669 298.429 72.2329C298.758 71.9152 299.129 71.6313 299.533 71.3871C300.425 70.7299 301.244 70.0017 301.98 69.212C302.311 68.9142 302.581 68.5702 302.78 68.1945C303.033 67.6359 302.958 67.013 302.971 66.4129C303.014 64.4483 304.037 62.6162 304.663 60.728C305.253 58.9498 305.499 57.0846 306.273 55.3604C307.047 53.6362 308.562 51.8268 310.626 51.3633Z" fill="#D0CDE1"/>
<path d="M304.537 29.9108C302.53 29.6977 300.497 30.0631 298.752 30.9507C299.009 30.9591 299.267 30.9743 299.527 31.0016C301.456 31.2038 303.262 31.9265 304.692 33.0679C306.121 34.2093 307.102 35.7117 307.496 37.3631C307.889 39.0144 307.675 40.7314 306.884 42.2716C306.094 43.8118 304.766 45.0976 303.088 45.9474C305.479 46.0231 307.81 45.2938 309.595 43.912C311.381 42.5302 312.482 40.6027 312.669 38.5323C312.856 36.462 312.115 34.409 310.599 32.8023C309.084 31.1956 306.912 30.1596 304.537 29.9108V29.9108Z" fill="#2F2E41"/>
<path d="M307.389 34.3864C307.614 34.8291 307.737 35.3061 307.749 35.7899C307.762 36.2738 307.664 36.7551 307.462 37.2062C307.418 37.0896 307.368 36.975 307.31 36.8629C306.164 34.6486 302.633 33.732 299.424 34.8157C297.534 35.4541 296.177 36.6444 295.616 37.9673C294.798 35.8268 296.458 33.3674 299.503 32.3392C302.712 31.2555 306.243 32.1721 307.389 34.3864Z" fill="#2F2E41"/>
<g opacity="0.1">
<path opacity="0.1" d="M307.408 37.0315C307.259 35.4774 306.595 33.994 305.495 32.7612C304.395 31.5284 302.907 30.5991 301.211 30.0859C300.348 30.2705 299.52 30.5621 298.752 30.9516C299.009 30.96 299.267 30.9752 299.527 31.0025C301.389 31.1979 303.138 31.8787 304.545 32.955C305.952 34.0314 306.95 35.4527 307.408 37.0315V37.0315Z" fill="black"/>
<path opacity="0.1" d="M308.912 31.1565C308.763 29.6024 308.099 28.119 306.999 26.8862C305.899 25.6534 304.411 24.7241 302.715 24.2109C301.852 24.3955 301.024 24.6871 300.256 25.0766C300.513 25.085 300.771 25.1002 301.031 25.1275C302.893 25.3229 304.642 26.0037 306.049 27.08C307.456 28.1564 308.454 29.5777 308.912 31.1565V31.1565Z" fill="black"/>
<path opacity="0.1" d="M308.949 22.3812C308.86 21.4433 308.459 20.548 307.795 19.804C307.131 19.06 306.233 18.4991 305.21 18.1895C304.689 18.3009 304.189 18.4768 303.726 18.7119C303.881 18.7169 304.037 18.7261 304.194 18.7426C305.317 18.8606 306.373 19.2714 307.222 19.921C308.071 20.5706 308.673 21.4283 308.949 22.3812V22.3812Z" fill="black"/>
<path opacity="0.1" d="M312.418 35.9404C312.598 37.8711 311.971 39.7936 310.652 41.3557C309.333 42.9178 307.41 44.0149 305.235 44.4462C304.609 45.0363 303.886 45.5424 303.089 45.948C304.526 45.9936 305.957 45.7481 307.266 45.231C308.575 44.7138 309.728 43.9391 310.633 42.9682C311.538 41.9973 312.171 40.8569 312.481 39.6371C312.79 38.4174 312.769 37.1518 312.418 35.9404V35.9404Z" fill="black"/>
</g>
<path d="M283.575 87.5257L282.376 56.0508" stroke="#FFAE3A" stroke-width="2" stroke-miterlimit="10"/>
<path d="M282.376 60.5045C285.209 60.5045 287.505 58.5107 287.505 56.0511C287.505 53.5915 285.209 51.5977 282.376 51.5977C279.543 51.5977 277.247 53.5915 277.247 56.0511C277.247 58.5107 279.543 60.5045 282.376 60.5045Z" fill="#FFAE3A"/>
<path d="M283.116 75.4495C283.116 75.4495 281.862 61.7946 266.91 63.8154Z" fill="#FFAE3A"/>
<path d="M99.942 122.3H95.7998V150.235C95.7998 150.235 122.536 157.144 148.519 150.235V122.3H99.942Z" fill="#1B5730"/>
<path opacity="0.1" d="M122.352 125.745C136.803 125.745 148.519 123.508 148.519 120.749C148.519 117.99 136.803 115.754 122.352 115.754C107.9 115.754 96.1846 117.99 96.1846 120.749C96.1846 123.508 107.9 125.745 122.352 125.745Z" fill="black"/>
<path d="M122.544 127.467C137.102 127.467 148.904 124.845 148.904 121.61C148.904 118.376 137.102 115.754 122.544 115.754C107.986 115.754 96.1846 118.376 96.1846 121.61C96.1846 124.845 107.986 127.467 122.544 127.467Z" fill="#1B5730"/>
</g>
<defs>
<linearGradient id="paint0_linear" x1="305.798" y1="43.7724" x2="305.798" y2="40.3223" gradientUnits="userSpaceOnUse">
<stop stop-color="#808080" stop-opacity="0.25"/>
<stop offset="0.53514" stop-color="#808080" stop-opacity="0.12"/>
<stop offset="1" stop-color="#808080" stop-opacity="0.1"/>
</linearGradient>
<clipPath id="clip0">
<rect width="304" height="185" fill="white" transform="translate(35)"/>
</clipPath>
</defs>
</svg>
