<svg width="248" height="292" viewBox="0 0 248 292" fill="none" xmlns="http://www.w3.org/2000/svg">
<path d="M80.179 57.1763C66.5248 44.845 62.7474 35.7726 48.2994 26.5701C40.1227 21.362 26.1582 15.3444 26.1582 15.3444C26.1582 15.3444 23.0116 12.9922 23.1025 10.882C23.1866 8.93123 24.6601 8.21385 26.0526 6.84507L26.0692 6.82874C27.5658 5.35764 28.5103 4.42926 30.515 3.78938C32.5611 3.13625 33.8842 3.44712 36.0145 3.72103C40.262 4.26714 46.0697 8.09641 46.0697 8.09641C46.0697 8.09641 61.2849 18.3061 69.7978 26.3029C79.9114 35.8034 92.6378 53.5212 92.6378 53.5212C92.6378 53.5212 107.324 64.4844 108.401 74.8269C108.603 76.7691 109.461 79.4519 107.957 79.3328C106.653 79.2296 105.914 90.1951 106.362 94.1098C106.554 94.8963 106.655 95.3502 106.655 95.3502C106.528 95.1478 106.431 94.7123 106.362 94.1098C105.593 90.9578 103.374 82.4637 100.42 76.4262C97.609 70.6808 96.7241 67.565 91.7589 63.5329C87.7572 60.2831 84.0049 60.6314 80.179 57.1763Z" fill="#1EC843" stroke="#219F44"/>
<g filter="url(#filter0_d)">
<path d="M101.332 95.8638C93.5788 96.9044 100.178 84.5951 98.2983 77.6825C96.9483 72.7184 91.6995 68.6435 91.3464 63.538C91.3314 63.3213 91.2938 63.199 91.2477 63.1379C90.7142 63.6905 91.0552 62.8825 91.2477 63.1379C91.276 63.1085 91.3068 63.0754 91.3402 63.038C92.6107 61.6165 96.1891 64.0632 97.6541 65.3141C101.143 68.2934 102.687 70.4211 105.022 74.2212C107.05 77.5217 108.934 79.3877 109.091 83.1693C109.327 88.8308 107.498 95.0363 101.332 95.8638Z" fill="#1C873A"/>
</g>
<path d="M144.874 66.062C144.403 70.14 146.533 72.6603 149.492 75.5053C155.545 81.3242 163.772 79.527 170.99 75.2381C176.497 71.9664 177.4 67.5257 180.828 62.1149C183.355 58.1252 184.858 55.8911 186.697 51.5411C188.838 46.4765 190.529 37.9924 190.529 37.9924C190.529 37.9924 184.371 39.648 180.567 41.1165C175.108 43.2239 172.108 44.6787 167.149 47.7837C161.952 51.0373 159.489 53.5258 154.768 57.4384C150.822 60.709 145.462 60.9704 144.874 66.062Z" fill="#2BB451"/>
<path d="M101.062 86.403C114.04 86.2417 116.985 72.8622 117.143 85.5638C117.3 98.2653 116.327 100.032 103.35 100.193C90.3719 100.355 85.2219 97.2602 85.0641 84.5586C84.9062 71.857 88.0843 86.5643 101.062 86.403Z" fill="#1C873A"/>
<path d="M24.8268 149.871L38.3257 149.704C38.3257 149.704 41.164 136.667 38.1953 139.204C35.2266 141.741 30.7455 143.297 30.7455 143.297C28.0308 145.434 24.8268 149.871 24.8268 149.871Z" fill="#1C873A"/>
<path d="M186.902 62.6296L177.79 72.5904C177.79 72.5904 185.357 83.5786 185.538 79.6777C185.718 75.7767 187.649 71.444 187.649 71.444C187.948 68.0024 186.902 62.6296 186.902 62.6296Z" fill="#2BB451"/>
<path d="M15.5044 123.985C26.3175 130.823 47.1138 132.593 47.1138 132.593L59.4326 117.939L77.838 110.209L59.2276 101.44C59.2276 101.44 36.8632 98.4528 23.2304 101.887C14.229 104.155 1.3439 111.16 1.3439 111.16C1.3439 111.16 9.19846 119.998 15.5044 123.985Z" fill="#219F44"/>
<path d="M41.4527 119.662C45.5033 120.3 51.9519 119.532 51.9519 119.532C51.9519 119.532 55.3488 116.924 55.8894 114.483C57.1135 108.954 47.0527 114.592 41.3905 114.663L21.3921 114.911L33.4222 117.262C33.4222 117.262 38.2193 119.153 41.4527 119.662Z" fill="#166F2F"/>
<path d="M158.209 68.1487C155.176 70.9078 151.737 76.4169 151.737 76.4169C151.737 76.4169 151.644 80.6984 153.209 82.6486C156.753 87.0647 158.656 75.6896 162.146 71.2306L174.474 55.4817L165.109 63.3901C165.109 63.3901 160.631 65.9463 158.209 68.1487Z" fill="#1C873A" stroke="#1C873A"/>
<path d="M45.3038 126.48C23.7779 158.976 42.0844 197.668 72.0011 222.656C76.9308 226.773 99.9341 238.488 131.684 258.417C148.896 275.382 180.18 289.379 190.318 287.69C209.78 284.448 214.136 277.158 224.943 257.258C244.147 221.894 241.771 164.96 229.321 126.693C219.465 96.402 217.367 85.7165 187.665 74.2067C157.101 62.3628 139.985 82.8572 109.414 94.6808C84.5595 104.293 60.02 104.264 45.3038 126.48Z" fill="#C4C4C4"/>
<path d="M45.3038 126.48C23.7779 158.976 42.0844 197.668 72.0011 222.656C76.9308 226.773 99.9341 238.488 131.684 258.417C148.896 275.382 180.18 289.379 190.318 287.69C209.78 284.448 214.136 277.158 224.943 257.258C244.147 221.894 241.771 164.96 229.321 126.693C219.465 96.402 217.367 85.7165 187.665 74.2067C157.101 62.3628 139.985 82.8572 109.414 94.6808C84.5595 104.293 60.02 104.264 45.3038 126.48Z" fill="#B31515"/>
<path d="M46.316 127.467C24.7901 159.964 43.0963 198.656 73.0133 223.643C85.341 233.939 97.6363 238.608 120.606 252.232C145.583 267.047 181.193 290.366 191.331 288.678C210.792 285.436 215.148 278.145 225.955 258.245C245.159 222.882 242.783 165.947 230.333 127.681C220.477 97.3894 218.379 86.7039 188.677 75.194C158.113 63.3502 140.998 83.8446 110.426 95.6682C85.5717 105.281 61.0322 105.251 46.316 127.467Z" fill="#C4C4C4"/>
<path d="M46.316 127.467C24.7901 159.964 43.0963 198.656 73.0133 223.643C85.341 233.939 97.6363 238.608 120.606 252.232C145.583 267.047 181.193 290.366 191.331 288.678C210.792 285.436 215.148 278.145 225.955 258.245C245.159 222.882 242.783 165.947 230.333 127.681C220.477 97.3894 218.379 86.7039 188.677 75.194C158.113 63.3502 140.998 83.8446 110.426 95.6682C85.5717 105.281 61.0322 105.251 46.316 127.467Z" fill="#B31515"/>
<path d="M128.297 184.292C98.3804 159.305 83.4928 138.7 105.019 106.204C107.64 102.246 109.067 99.6754 109.782 98.0686C108.005 96.8031 111.84 93.4453 109.782 98.0686C110.855 98.8322 113.971 98.834 121.658 95.861C152.229 84.0374 166.082 57.9547 196.646 69.7985C226.348 81.3084 228.446 91.9939 238.301 122.285C250.752 160.552 248.332 215.181 229.128 250.544C218.322 270.445 216.213 278.842 203.898 272.359C191.582 265.877 153.274 199.107 128.297 184.292Z" fill="#C4C4C4"/>
<path d="M128.297 184.292C98.3804 159.305 83.4928 138.7 105.019 106.204C107.64 102.246 109.067 99.6754 109.782 98.0686C108.005 96.8031 111.84 93.4453 109.782 98.0686C110.855 98.8322 113.971 98.834 121.658 95.861C152.229 84.0374 166.082 57.9547 196.646 69.7985C226.348 81.3084 228.446 91.9939 238.301 122.285C250.752 160.552 248.332 215.181 229.128 250.544C218.322 270.445 216.213 278.842 203.898 272.359C191.582 265.877 153.274 199.107 128.297 184.292Z" fill="#F82C11" fill-opacity="0.77"/>
<path d="M30.667 6.93308C29.1468 8.10618 28.1903 8.29948 26.9459 9.62992C26.2417 10.3829 25.3113 11.7355 25.3113 11.7355C25.3113 11.7355 25.0073 12.0172 24.8099 11.9585C24.6274 11.9043 24.5975 11.7303 24.5038 11.5497L24.5027 11.5476C24.4021 11.3536 24.3386 11.2311 24.3297 11.0021C24.3207 10.7683 24.3843 10.6342 24.4653 10.4129C24.6267 9.9717 25.1392 9.43992 25.1392 9.43992C25.1392 9.43992 26.4988 8.05085 27.4757 7.32663C28.6364 6.46623 30.6426 5.51714 30.6426 5.51714C30.6426 5.51714 32.0598 4.20209 33.0669 4.32679C33.256 4.3502 33.5322 4.32068 33.4821 4.47868C33.4386 4.61561 34.4578 4.9487 34.84 4.9916C34.9194 4.98933 34.965 4.98901 34.965 4.98901C34.9426 4.99793 34.8989 4.9982 34.84 4.9916C34.5217 5.00068 33.6602 5.04095 33.0123 5.2166C32.3957 5.38375 32.0778 5.40608 31.5678 5.84313C31.1568 6.19538 31.0929 6.60439 30.667 6.93308Z" fill="#1C873A"/>
<g filter="url(#filter1_f)">
<path d="M209.541 280.449C199.598 283.188 187.125 269.865 187.125 269.865C187.125 269.865 183.385 268.961 179.894 265.091C176.822 261.685 173.636 258.286 173.636 258.286C173.636 258.286 163.93 258.515 161.308 254.167C159.262 250.776 163.875 246.928 161.182 244.024C158.205 240.814 149.974 244.163 149.974 244.163L143.984 234.627L130.015 227.326C130.015 227.326 130.326 224.683 129.962 223.055C129.306 220.12 127.44 219.089 125.613 216.702C122.919 213.182 119.471 212.446 118.035 208.253C116.886 204.9 117.966 202.722 117.922 199.177L117.816 190.636L117.769 186.899C117.769 186.899 115.296 194.252 111.458 194.452C107.481 194.66 106.806 190.259 104.427 187.065C102.14 183.996 100.435 182.298 99.5171 178.583C99.5171 178.583 101.584 172.83 99.4176 170.575C97.1066 168.17 93.4559 172.798 90.8784 170.681C87.8176 168.167 92.9637 163.824 90.7523 160.538C90.7523 160.538 89.1854 158.842 88.0506 157.902C85.4629 155.756 83.0009 155.998 80.5257 153.724C77.9709 151.376 76.6865 149.615 75.6295 146.309C74.4864 142.735 74.6139 140.344 75.5101 136.7C76.424 132.983 81.4984 131.702 80.2072 128.099C79.3603 125.735 76.2577 126.229 75.3508 123.888L75.2911 119.083C75.2911 119.083 78.8641 115.175 80.0082 112.083C81.553 107.908 96.6157 103.58 99.8787 99.1527C99.5844 99.2296 99.4176 99.2707 99.4176 99.2707L100.5 97.5C100.507 98.0524 100.284 98.6033 99.8787 99.1527C101.932 98.6162 110.191 96.333 111.385 94.0302C111.388 93.9627 111.392 93.8951 111.396 93.8274C110.144 89.5746 108.384 85.397 111.458 93.1195C112.818 81.0094 134.457 78.7689 141.891 79.8701C148.49 80.8474 152.944 73.8225 159.099 76.3944C162.14 77.6651 164.048 78.5301 166.096 81.1128C166.096 81.1128 160.168 100.8 166.309 98.1961C170.772 96.3032 171.506 86.9189 171.506 86.9189C171.506 86.9189 170.212 82.9873 171.433 81.0465C173.682 77.4738 177.174 84.3114 180.579 86.8061C183.68 89.0779 186.501 89.6378 188.131 93.1195C189.722 96.5182 188.727 99.0063 188.25 102.729C187.839 105.939 189.05 109.204 186.215 110.763C184.388 111.768 182.962 110.804 180.878 110.829C177.335 110.873 174.966 109.34 171.805 110.942C166.117 113.826 168.802 126.998 168.802 126.998C168.802 126.998 169.641 132.932 172.11 135.499C174.767 138.262 177.886 137.251 181.23 139.124C183.449 140.367 184.338 141.654 186.613 142.794C188.794 143.888 190.087 144.57 192.51 144.857L196.246 144.81C196.246 144.81 197.883 144.629 198.915 144.777C205.517 145.725 196.483 155.735 199.127 161.86C201.874 168.223 213.539 167.203 212.088 173.98C211.099 178.602 206.073 178.414 203.115 182.1C199.959 186.033 197.316 188.37 196.85 193.391C196.452 197.671 197.112 200.567 199.651 204.035C201.671 206.794 205.639 206.022 206.656 209.287C207.152 210.88 206.688 211.89 206.709 213.558C206.735 215.643 205.955 216.98 206.775 218.896L209.483 222.066C209.483 222.066 216.505 228.528 216.034 233.732C215.764 236.705 213.62 237.81 212.918 240.711C212.229 243.556 212.107 245.289 212.477 248.192C212.986 252.187 215.777 253.767 216.332 257.755C216.62 259.82 215.479 261.222 216.399 263.093C218.33 267.023 222.802 252.058 224.596 256.052C226.255 259.745 220.39 268.962 217.795 272.069C214.639 275.845 213.316 279.408 209.541 280.449Z" fill="#F11919"/>
</g>
<g filter="url(#filter2_d)">
<path d="M98.5323 87.7288C93.8256 102.995 94.691 139.073 91.0673 130.825C88.6023 125.214 86.7443 122.198 82.9002 117.425C80.387 114.305 78.5919 112.894 75.8075 110.013C71.2965 105.346 66.3098 104.281 64.1593 98.1568C62.542 93.551 63.0607 90.4473 64.0039 85.6578C65.3379 78.8843 68.1495 75.5619 72.3106 70.0533C75.6396 65.6465 76.7515 60.9162 82.1856 59.9298C87.1808 59.0232 90.4614 61.3973 94.2468 64.7803C101.045 70.8555 101.218 79.0167 98.5323 87.7288Z" fill="#1EC843"/>
<path d="M98.0545 87.5815C95.8156 94.8431 94.8317 106.738 94.037 116.345C93.9892 116.923 93.9421 117.493 93.8954 118.053C93.4819 123.014 93.1053 127.192 92.6107 129.618C92.4874 130.222 92.3605 130.698 92.2307 131.042C92.1658 131.214 92.1046 131.342 92.0495 131.431C92.0379 131.45 92.027 131.467 92.0169 131.481C91.899 131.356 91.7314 131.093 91.5251 130.624C89.0418 124.971 87.1604 121.918 83.2896 117.112C81.5969 115.01 80.2085 113.658 78.6538 112.143C77.8846 111.394 77.0747 110.605 76.167 109.665C74.524 107.966 72.7964 106.718 71.2037 105.567C70.5789 105.116 69.9749 104.679 69.4049 104.236C67.3662 102.653 65.6623 100.928 64.631 97.9912C63.0612 93.5205 63.5537 90.5319 64.4945 85.7544C65.7116 79.5744 68.1635 76.3448 71.8583 71.478C72.1351 71.1134 72.4189 70.7396 72.7096 70.3547C73.5584 69.2311 74.2635 68.09 74.9208 67.0113C74.9666 66.9361 75.0122 66.8612 75.0576 66.7866C75.667 65.7856 76.2368 64.8497 76.8607 64.0063C78.1853 62.2154 79.7215 60.8853 82.2749 60.4218C87.0187 59.5607 90.1367 61.7778 93.9136 65.1531C100.497 71.0371 100.716 78.9491 98.0545 87.5815Z" stroke="#1C873A"/>
</g>
<path d="M77.0425 91.79C76.0405 90.2089 74.8736 88.7911 73.7389 87.4585C73.5544 87.2419 73.3711 87.0279 73.1895 86.8159C72.2466 85.715 71.3511 84.6694 70.5894 83.6066C68.7906 81.0965 67.8085 78.5888 68.8845 75.3144C69.3987 73.7497 70.4593 72.1152 71.8107 70.8617C73.1654 69.6052 74.763 68.7756 76.34 68.7248C76.8613 68.708 77.0761 68.805 77.1545 68.8716C77.2024 68.9123 77.2662 68.9987 77.2386 69.2671C77.21 69.5439 77.0901 69.9168 76.8808 70.39C76.6746 70.8562 76.399 71.382 76.0866 71.9578C75.9906 72.1347 75.8913 72.3161 75.7898 72.5014C75.2386 73.5081 74.6257 74.6274 74.1638 75.7375C73.6205 77.0433 73.2452 78.4274 73.4731 79.6792C74.2427 83.9067 76.849 88.6952 79.2253 92.3907C80.4188 94.2467 81.5645 95.8425 82.412 96.9745C82.8359 97.5407 83.1855 97.9912 83.4295 98.3008C83.5515 98.4556 83.6472 98.5751 83.7126 98.6563C83.7445 98.696 83.7693 98.7264 83.7863 98.7474L83.8202 98.8075C83.8554 98.87 83.9063 98.9613 83.9689 99.0752C84.0943 99.3033 84.2661 99.6213 84.4517 99.9814C84.8272 100.71 85.2443 101.581 85.4582 102.225C85.4793 102.289 85.4974 102.347 85.5127 102.4C85.3792 102.307 85.2112 102.178 85.0039 102.001C84.5322 101.6 83.9051 100.997 83.0875 100.138C79.7816 96.665 78.8527 95.4679 78.4601 94.7281C78.3255 94.4746 78.2588 94.2886 78.1732 94.0501C78.133 93.9383 78.0887 93.8148 78.0313 93.6675C77.8585 93.2237 77.6014 92.6718 77.0425 91.79ZM85.895 102.611C85.895 102.611 85.8936 102.611 85.8907 102.61C85.8935 102.611 85.8949 102.611 85.895 102.611Z" fill="#1C873A" stroke="#1C873A"/>
<g filter="url(#filter3_d)">
<path d="M132.981 90.8798C147.901 85.1707 183.957 83.6408 175.487 80.5723C169.725 78.4849 166.592 76.8311 161.575 73.312C158.295 71.0114 156.767 69.3139 153.708 66.7267C148.752 62.5353 147.359 57.6301 141.105 55.8907C136.402 54.5825 133.334 54.787 128.617 56.0459C121.947 57.8262 118.818 60.8521 113.598 65.3695C109.422 68.9834 108.647 71.7106 108.023 77.1981C107.45 82.2424 109.027 84.0887 112.653 87.6413C119.166 94.0212 124.466 94.138 132.981 90.8798Z" fill="#1EC843" stroke="#1C873A"/>
<path d="M135.846 68.7288C129.402 65.221 126.689 63.3018 119.885 66.0498C116.662 67.3518 110.303 65.5702 110.422 69.0447C110.575 73.5331 119.959 68.3613 124.421 68.8708C130.508 69.5658 139.225 72.9053 143.479 74.6535C144.97 75.5333 146.915 76.5318 149.532 77.6823C160.594 82.5452 146.008 75.7259 146.008 75.7259C146.008 75.7259 145.046 75.2978 143.479 74.6535C138.665 71.8145 138.571 70.2117 135.846 68.7288Z" fill="#1C873A" stroke="#1C873A"/>
</g>
<g filter="url(#filter4_f)">
<ellipse cx="177.588" cy="122.266" rx="12.4661" ry="7.80436" transform="rotate(-121.562 177.588 122.266)" fill="#F11919"/>
</g>
<g filter="url(#filter5_i)">
<path d="M173.75 114.922C175.498 113.849 179.16 117.861 181.044 120.928C182.035 125.416 184.332 128.336 182.585 129.409C181.585 129.422 175.221 124.995 173.337 121.928C171.769 116.447 172.002 115.996 173.75 114.922Z" fill="#B31515"/>
</g>
<g filter="url(#filter6_f)">
<ellipse cx="208.474" cy="112.882" rx="12.4661" ry="7.80436" transform="rotate(-115.488 208.474 112.882)" fill="#F11919"/>
</g>
<g filter="url(#filter7_i)">
<path d="M205.434 105.173C207.286 104.29 210.503 108.667 212.052 111.916C212.562 116.484 214.538 119.631 212.686 120.513C211.691 120.42 205.831 115.345 204.282 112.095C203.303 106.479 203.583 106.055 205.434 105.173Z" fill="#B31515"/>
</g>
<g filter="url(#filter8_f)">
<ellipse cx="194.581" cy="82.7493" rx="12.4661" ry="7.80436" transform="rotate(-137.605 194.581 82.7493)" fill="#F11919"/>
</g>
<g filter="url(#filter9_i)">
<path d="M188.863 76.7516C190.245 75.2369 194.874 78.0807 197.532 80.5077C199.725 84.5471 202.74 86.7184 201.357 88.2331C200.399 88.5214 193.06 86.0257 190.402 83.5986C187.38 78.7646 187.48 78.2663 188.863 76.7516Z" fill="#B31515"/>
</g>
<g filter="url(#filter10_f)">
<ellipse cx="152.776" cy="101.854" rx="12.4661" ry="7.80436" transform="rotate(-137.605 152.776 101.854)" fill="#F11919"/>
</g>
<g filter="url(#filter11_i)">
<path d="M147.057 95.8567C148.44 94.342 153.069 97.1857 155.727 99.6128C157.92 103.652 160.934 105.823 159.552 107.338C158.594 107.626 151.255 105.131 148.596 102.704C145.575 97.8697 145.674 97.3714 147.057 95.8567Z" fill="#B31515"/>
</g>
<g filter="url(#filter12_f)">
<ellipse cx="227.374" cy="146.347" rx="12.4661" ry="7.80436" transform="rotate(-95.4116 227.374 146.347)" fill="#F11919"/>
</g>
<g filter="url(#filter13_i)">
<path d="M227.165 138.062C229.207 137.869 230.726 143.084 231.066 146.668C229.977 151.133 230.753 154.767 228.711 154.96C227.808 154.531 224.046 147.753 223.707 144.169C224.715 138.558 225.123 138.256 227.165 138.062Z" fill="#B31515"/>
</g>
<g filter="url(#filter14_f)">
<ellipse cx="168.198" cy="160.121" rx="12.4661" ry="7.80436" transform="rotate(-95.4116 168.198 160.121)" fill="#F11919"/>
</g>
<g filter="url(#filter15_i)">
<path d="M167.99 151.837C170.032 151.643 171.551 156.859 171.89 160.442C170.802 164.908 171.577 168.541 169.535 168.735C168.632 168.305 164.871 161.527 164.532 157.943C165.539 152.332 165.948 152.03 167.99 151.837Z" fill="#B31515"/>
</g>
<g filter="url(#filter16_f)">
<ellipse cx="137.927" cy="138.495" rx="12.4661" ry="7.80436" transform="rotate(-95.4116 137.927 138.495)" fill="#F11919"/>
</g>
<g filter="url(#filter17_i)">
<path d="M137.719 130.211C139.761 130.018 141.28 135.233 141.619 138.817C140.531 143.282 141.306 146.916 139.264 147.109C138.361 146.68 134.6 139.901 134.261 136.318C135.268 130.707 135.677 130.405 137.719 130.211Z" fill="#B31515"/>
</g>
<g filter="url(#filter18_f)">
<ellipse cx="163.044" cy="228.19" rx="12.4661" ry="7.80436" transform="rotate(-95.4116 163.044 228.19)" fill="#F11919"/>
</g>
<g filter="url(#filter19_i)">
<path d="M162.835 219.906C164.877 219.712 166.396 224.928 166.736 228.511C165.648 232.977 166.423 236.61 164.381 236.804C163.478 236.374 159.717 229.596 159.377 226.012C160.385 220.401 160.794 220.099 162.835 219.906Z" fill="#B31515"/>
</g>
<g filter="url(#filter20_f)">
<ellipse cx="150.609" cy="193.342" rx="12.4661" ry="7.80436" transform="rotate(-95.4116 150.609 193.342)" fill="#F11919"/>
</g>
<g filter="url(#filter21_i)">
<path d="M150.401 185.058C152.443 184.864 153.962 190.08 154.301 193.663C153.213 198.129 153.988 201.762 151.946 201.956C151.043 201.526 147.282 194.748 146.943 191.164C147.95 185.553 148.359 185.251 150.401 185.058Z" fill="#B31515"/>
</g>
<g filter="url(#filter22_i)">
<path d="M116.917 221.348C118.532 220.084 122.624 223.656 124.844 226.49C126.337 230.837 128.95 233.478 127.335 234.742C126.343 234.868 119.519 231.19 117.3 228.356C115.121 223.088 115.302 222.613 116.917 221.348Z" fill="#F11919"/>
</g>
<g filter="url(#filter23_i)">
<path d="M45.1744 162.959C47.1459 162.393 49.5986 167.24 50.5916 170.7C50.3434 175.29 51.7739 178.718 49.8025 179.284C48.8358 179.028 43.8917 173.058 42.8987 169.598C42.857 163.897 43.203 163.525 45.1744 162.959Z" fill="#F11919"/>
</g>
<g filter="url(#filter24_i)">
<path d="M82.6957 203.773C84.3106 202.508 88.4034 206.08 90.6228 208.914C92.1156 213.261 94.7288 215.902 93.1139 217.166C92.1218 217.292 85.2979 213.614 83.0786 210.78C80.8999 205.512 81.0809 205.037 82.6957 203.773Z" fill="#F11919"/>
</g>
<g filter="url(#filter25_i)">
<path d="M70.1155 162.661C72.083 162.082 74.569 166.912 75.5858 170.365C75.3691 174.956 76.8232 178.375 74.8557 178.954C73.8873 178.705 68.9022 172.769 67.8854 169.316C67.8046 163.615 68.148 163.241 70.1155 162.661Z" fill="#F11919"/>
</g>
<g filter="url(#filter26_i)">
<path d="M61.7246 130.421C63.322 130.129 64.9089 134.319 65.4434 137.243C64.9163 140.985 65.7984 143.923 64.201 144.215C63.4563 143.92 59.9833 138.592 59.4489 135.667C59.8272 130.988 60.1273 130.713 61.7246 130.421Z" fill="#F11919"/>
</g>
<g filter="url(#filter27_i)">
<path d="M151.879 251.039C153.29 250.236 156.171 253.666 157.642 256.25C158.38 259.957 160.183 262.438 158.771 263.241C157.971 263.209 152.933 259.326 151.463 256.742C150.275 252.201 150.467 251.842 151.879 251.039Z" fill="#F11919"/>
</g>
<g filter="url(#filter28_i)">
<path d="M179.921 273.815C180.884 272.923 183.57 274.859 185.059 276.465C186.149 279.058 187.877 280.518 186.914 281.41C186.299 281.555 181.904 279.737 180.415 278.131C178.862 275.014 178.958 274.708 179.921 273.815Z" fill="#F11919"/>
</g>
<g filter="url(#filter29_f)">
<ellipse cx="124.63" cy="114.659" rx="12.4661" ry="7.80436" transform="rotate(-95.4116 124.63 114.659)" fill="#F11919"/>
</g>
<g filter="url(#filter30_i)">
<path d="M124.422 106.374C126.463 106.181 127.983 111.396 128.322 114.98C127.234 119.446 128.009 123.079 125.967 123.272C125.064 122.843 121.303 116.065 120.963 112.481C121.971 106.87 122.38 106.568 124.422 106.374Z" fill="#B31515"/>
</g>
<g filter="url(#filter31_f)">
<ellipse cx="109.128" cy="154.855" rx="12.4661" ry="7.80436" transform="rotate(-92.2857 109.128 154.855)" fill="#F11919"/>
</g>
<g filter="url(#filter32_i)">
<path d="M109.372 146.571C111.421 146.489 112.654 151.78 112.797 155.377C111.467 159.776 112.043 163.447 109.994 163.528C109.115 163.05 105.729 156.077 105.586 152.48C106.898 146.933 107.323 146.653 109.372 146.571Z" fill="#B31515"/>
</g>
<g filter="url(#filter33_f)">
<ellipse cx="92.3678" cy="143.803" rx="12.4661" ry="7.80436" transform="rotate(-92.2857 92.3678 143.803)" fill="#F11919"/>
</g>
<g filter="url(#filter34_i)">
<path d="M92.6114 135.519C94.6608 135.438 95.8932 140.728 96.0367 144.325C94.7065 148.724 95.2824 152.395 93.233 152.477C92.3548 151.998 88.9687 145.025 88.8252 141.428C90.1375 135.881 90.562 135.601 92.6114 135.519Z" fill="#B31515"/>
</g>
<g filter="url(#filter35_f)">
<ellipse cx="113.801" cy="178.539" rx="12.4661" ry="7.80436" transform="rotate(-92.2857 113.801 178.539)" fill="#F11919"/>
</g>
<g filter="url(#filter36_i)">
<path d="M114.045 170.256C116.094 170.174 117.327 175.464 117.47 179.061C116.14 183.461 116.716 187.131 114.666 187.213C113.788 186.735 110.402 179.761 110.259 176.165C111.571 170.617 111.995 170.338 114.045 170.256Z" fill="#B31515"/>
</g>
<g filter="url(#filter37_f)">
<ellipse cx="205.581" cy="190.659" rx="12.4661" ry="7.80436" transform="rotate(-109.831 205.581 190.659)" fill="#F11919"/>
</g>
<g filter="url(#filter38_i)">
<path d="M203.316 182.687C205.245 181.991 208.015 186.664 209.236 190.051C209.294 194.646 210.95 197.972 209.021 198.668C208.039 198.477 202.708 192.849 201.487 189.463C201.066 183.777 201.387 183.383 203.316 182.687Z" fill="#B31515"/>
</g>
<g filter="url(#filter39_f)">
<ellipse rx="11.1942" ry="6.59587" transform="matrix(-0.0396984 -0.999212 0.988377 -0.152023 229.79 183.309)" fill="#F11919"/>
</g>
<g filter="url(#filter40_i)">
<path d="M229.974 175.818C231.687 175.554 232.73 180.21 232.858 183.44C231.756 187.53 232.246 190.786 230.533 191.05C229.798 190.7 226.95 184.726 226.822 181.496C227.907 176.372 228.261 176.081 229.974 175.818Z" fill="#B31515"/>
</g>
<g filter="url(#filter41_f)">
<ellipse rx="11.1942" ry="6.59587" transform="matrix(-0.0396984 -0.999212 0.988377 -0.152023 183.059 201.988)" fill="#F11919"/>
</g>
<g filter="url(#filter42_i)">
<path d="M183.243 194.496C184.956 194.233 185.999 198.889 186.127 202.119C185.025 206.209 185.515 209.465 183.802 209.728C183.067 209.379 180.219 203.404 180.091 200.175C181.176 195.051 181.53 194.76 183.243 194.496Z" fill="#B31515"/>
</g>
<g filter="url(#filter43_f)">
<ellipse rx="11.1942" ry="6.59587" transform="matrix(-0.0396984 -0.999212 0.988377 -0.152023 214.243 216.601)" fill="#F11919"/>
</g>
<g filter="url(#filter44_i)">
<path d="M214.427 209.11C216.14 208.846 217.183 213.502 217.311 216.732C216.209 220.822 216.699 224.078 214.986 224.342C214.251 223.992 211.404 218.018 211.275 214.788C212.36 209.664 212.714 209.373 214.427 209.11Z" fill="#B31515"/>
</g>
<g filter="url(#filter45_f)">
<ellipse rx="7.58612" ry="5.33064" transform="matrix(0.0709902 -0.997477 0.958902 0.283739 233.85 221.009)" fill="#F11919"/>
</g>
<g filter="url(#filter46_i)">
<path d="M234.583 216.102C235.926 216.499 236.364 219.936 236.208 222.121C235.035 224.465 235.157 226.789 233.813 226.391C233.273 225.914 231.546 221 231.702 218.815C232.943 215.779 233.239 215.704 234.583 216.102Z" fill="#B31515"/>
</g>
<g filter="url(#filter47_f)">
<ellipse rx="7.58612" ry="5.33064" transform="matrix(0.0709902 -0.997477 0.958902 0.283739 216.653 251.021)" fill="#F11919"/>
</g>
<g filter="url(#filter48_i)">
<path d="M217.386 246.114C218.729 246.512 219.167 249.948 219.011 252.133C217.838 254.478 217.96 256.801 216.617 256.404C216.077 255.926 214.35 251.013 214.505 248.828C215.746 245.792 216.042 245.717 217.386 246.114Z" fill="#B31515"/>
</g>
<g filter="url(#filter49_f)">
<ellipse rx="7.58612" ry="5.33064" transform="matrix(0.0709902 -0.997477 0.958902 0.283739 185.63 249.407)" fill="#F11919"/>
</g>
<g filter="url(#filter50_i)">
<path d="M186.363 244.5C187.707 244.897 188.145 248.334 187.989 250.519C186.816 252.863 186.938 255.187 185.594 254.789C185.054 254.311 183.327 249.398 183.483 247.213C184.724 244.177 185.02 244.102 186.363 244.5Z" fill="#B31515"/>
</g>
<g filter="url(#filter51_f)">
<ellipse rx="7.58612" ry="5.33064" transform="matrix(0.0709902 -0.997477 0.958902 0.283739 197.443 234.259)" fill="#F11919"/>
</g>
<g filter="url(#filter52_i)">
<path d="M198.176 229.352C199.519 229.749 199.957 233.186 199.802 235.371C198.629 237.715 198.75 240.039 197.407 239.641C196.867 239.163 195.14 234.25 195.295 232.065C196.536 229.029 196.833 228.954 198.176 229.352Z" fill="#B31515"/>
</g>
<defs>
<filter id="filter0_d" x="86.9534" y="62.403" width="26.3048" height="41.6363" filterUnits="userSpaceOnUse" color-interpolation-filters="sRGB">
<feFlood flood-opacity="0" result="BackgroundImageFix"/>
<feColorMatrix in="SourceAlpha" type="matrix" values="0 0 0 0 0 0 0 0 0 0 0 0 0 0 0 0 0 0 127 0" result="hardAlpha"/>
<feOffset dy="4"/>
<feGaussianBlur stdDeviation="2"/>
<feComposite in2="hardAlpha" operator="out"/>
<feColorMatrix type="matrix" values="0 0 0 0 0 0 0 0 0 0 0 0 0 0 0 0 0 0 0.25 0"/>
<feBlend mode="normal" in2="BackgroundImageFix" result="effect1_dropShadow"/>
<feBlend mode="normal" in="SourceGraphic" in2="effect1_dropShadow" result="shape"/>
</filter>
<filter id="filter1_f" x="70" y="71" width="159.173" height="215.438" filterUnits="userSpaceOnUse" color-interpolation-filters="sRGB">
<feFlood flood-opacity="0" result="BackgroundImageFix"/>
<feBlend mode="normal" in="SourceGraphic" in2="BackgroundImageFix" result="shape"/>
<feGaussianBlur stdDeviation="2" result="effect1_foregroundBlur"/>
</filter>
<filter id="filter2_d" x="58.7129" y="59.54" width="46.1057" height="80.8479" filterUnits="userSpaceOnUse" color-interpolation-filters="sRGB">
<feFlood flood-opacity="0" result="BackgroundImageFix"/>
<feColorMatrix in="SourceAlpha" type="matrix" values="0 0 0 0 0 0 0 0 0 0 0 0 0 0 0 0 0 0 127 0" result="hardAlpha"/>
<feOffset dy="4"/>
<feGaussianBlur stdDeviation="2"/>
<feComposite in2="hardAlpha" operator="out"/>
<feColorMatrix type="matrix" values="0 0 0 0 0 0 0 0 0 0 0 0 0 0 0 0 0 0 0.25 0"/>
<feBlend mode="normal" in2="BackgroundImageFix" result="effect1_dropShadow"/>
<feBlend mode="normal" in="SourceGraphic" in2="effect1_dropShadow" result="shape"/>
</filter>
<filter id="filter3_d" x="102.147" y="52.2917" width="79.6054" height="50.0593" filterUnits="userSpaceOnUse" color-interpolation-filters="sRGB">
<feFlood flood-opacity="0" result="BackgroundImageFix"/>
<feColorMatrix in="SourceAlpha" type="matrix" values="0 0 0 0 0 0 0 0 0 0 0 0 0 0 0 0 0 0 127 0" result="hardAlpha"/>
<feOffset dy="4"/>
<feGaussianBlur stdDeviation="2"/>
<feComposite in2="hardAlpha" operator="out"/>
<feColorMatrix type="matrix" values="0 0 0 0 0 0 0 0 0 0 0 0 0 0 0 0 0 0 0.25 0"/>
<feBlend mode="normal" in2="BackgroundImageFix" result="effect1_dropShadow"/>
<feBlend mode="normal" in="SourceGraphic" in2="effect1_dropShadow" result="shape"/>
</filter>
<filter id="filter4_f" x="160.413" y="103.559" width="34.3499" height="37.414" filterUnits="userSpaceOnUse" color-interpolation-filters="sRGB">
<feFlood flood-opacity="0" result="BackgroundImageFix"/>
<feBlend mode="normal" in="SourceGraphic" in2="BackgroundImageFix" result="shape"/>
<feGaussianBlur stdDeviation="2" result="effect1_foregroundBlur"/>
</filter>
<filter id="filter5_i" x="170.326" y="113.314" width="14.9231" height="22.1695" filterUnits="userSpaceOnUse" color-interpolation-filters="sRGB">
<feFlood flood-opacity="0" result="BackgroundImageFix"/>
<feBlend mode="normal" in="SourceGraphic" in2="BackgroundImageFix" result="shape"/>
<feColorMatrix in="SourceAlpha" type="matrix" values="0 0 0 0 0 0 0 0 0 0 0 0 0 0 0 0 0 0 127 0" result="hardAlpha"/>
<feOffset dy="4"/>
<feGaussianBlur stdDeviation="2"/>
<feComposite in2="hardAlpha" operator="arithmetic" k2="-1" k3="1"/>
<feColorMatrix type="matrix" values="0 0 0 0 0 0 0 0 0 0 0 0 0 0 0 0 0 0 0.25 0"/>
<feBlend mode="normal" in2="shape" result="effect1_innerShadow"/>
</filter>
<filter id="filter6_f" x="192.065" y="94.2707" width="32.8184" height="37.2224" filterUnits="userSpaceOnUse" color-interpolation-filters="sRGB">
<feFlood flood-opacity="0" result="BackgroundImageFix"/>
<feBlend mode="normal" in="SourceGraphic" in2="BackgroundImageFix" result="shape"/>
<feGaussianBlur stdDeviation="2" result="effect1_foregroundBlur"/>
</filter>
<filter id="filter7_i" x="201.807" y="103.851" width="13.7021" height="22.3681" filterUnits="userSpaceOnUse" color-interpolation-filters="sRGB">
<feFlood flood-opacity="0" result="BackgroundImageFix"/>
<feBlend mode="normal" in="SourceGraphic" in2="BackgroundImageFix" result="shape"/>
<feColorMatrix in="SourceAlpha" type="matrix" values="0 0 0 0 0 0 0 0 0 0 0 0 0 0 0 0 0 0 127 0" result="hardAlpha"/>
<feOffset dy="4"/>
<feGaussianBlur stdDeviation="2"/>
<feComposite in2="hardAlpha" operator="arithmetic" k2="-1" k3="1"/>
<feColorMatrix type="matrix" values="0 0 0 0 0 0 0 0 0 0 0 0 0 0 0 0 0 0 0.25 0"/>
<feBlend mode="normal" in2="shape" result="effect1_innerShadow"/>
</filter>
<filter id="filter8_f" x="176.113" y="64.5806" width="36.9367" height="36.3375" filterUnits="userSpaceOnUse" color-interpolation-filters="sRGB">
<feFlood flood-opacity="0" result="BackgroundImageFix"/>
<feBlend mode="normal" in="SourceGraphic" in2="BackgroundImageFix" result="shape"/>
<feGaussianBlur stdDeviation="2" result="effect1_foregroundBlur"/>
</filter>
<filter id="filter9_i" x="186.153" y="74.4833" width="17.3119" height="20.6771" filterUnits="userSpaceOnUse" color-interpolation-filters="sRGB">
<feFlood flood-opacity="0" result="BackgroundImageFix"/>
<feBlend mode="normal" in="SourceGraphic" in2="BackgroundImageFix" result="shape"/>
<feColorMatrix in="SourceAlpha" type="matrix" values="0 0 0 0 0 0 0 0 0 0 0 0 0 0 0 0 0 0 127 0" result="hardAlpha"/>
<feOffset dy="4"/>
<feGaussianBlur stdDeviation="2"/>
<feComposite in2="hardAlpha" operator="arithmetic" k2="-1" k3="1"/>
<feColorMatrix type="matrix" values="0 0 0 0 0 0 0 0 0 0 0 0 0 0 0 0 0 0 0.25 0"/>
<feBlend mode="normal" in2="shape" result="effect1_innerShadow"/>
</filter>
<filter id="filter10_f" x="134.307" y="83.6856" width="36.9367" height="36.3375" filterUnits="userSpaceOnUse" color-interpolation-filters="sRGB">
<feFlood flood-opacity="0" result="BackgroundImageFix"/>
<feBlend mode="normal" in="SourceGraphic" in2="BackgroundImageFix" result="shape"/>
<feGaussianBlur stdDeviation="2" result="effect1_foregroundBlur"/>
</filter>
<filter id="filter11_i" x="144.348" y="93.5884" width="17.3119" height="20.6771" filterUnits="userSpaceOnUse" color-interpolation-filters="sRGB">
<feFlood flood-opacity="0" result="BackgroundImageFix"/>
<feBlend mode="normal" in="SourceGraphic" in2="BackgroundImageFix" result="shape"/>
<feColorMatrix in="SourceAlpha" type="matrix" values="0 0 0 0 0 0 0 0 0 0 0 0 0 0 0 0 0 0 127 0" result="hardAlpha"/>
<feOffset dy="4"/>
<feGaussianBlur stdDeviation="2"/>
<feComposite in2="hardAlpha" operator="arithmetic" k2="-1" k3="1"/>
<feColorMatrix type="matrix" values="0 0 0 0 0 0 0 0 0 0 0 0 0 0 0 0 0 0 0.25 0"/>
<feBlend mode="normal" in2="shape" result="effect1_innerShadow"/>
</filter>
<filter id="filter12_f" x="214.429" y="129.2" width="25.8905" height="34.2931" filterUnits="userSpaceOnUse" color-interpolation-filters="sRGB">
<feFlood flood-opacity="0" result="BackgroundImageFix"/>
<feBlend mode="normal" in="SourceGraphic" in2="BackgroundImageFix" result="shape"/>
<feGaussianBlur stdDeviation="2" result="effect1_foregroundBlur"/>
</filter>
<filter id="filter13_i" x="223.164" y="137.773" width="8.65898" height="21.5615" filterUnits="userSpaceOnUse" color-interpolation-filters="sRGB">
<feFlood flood-opacity="0" result="BackgroundImageFix"/>
<feBlend mode="normal" in="SourceGraphic" in2="BackgroundImageFix" result="shape"/>
<feColorMatrix in="SourceAlpha" type="matrix" values="0 0 0 0 0 0 0 0 0 0 0 0 0 0 0 0 0 0 127 0" result="hardAlpha"/>
<feOffset dy="4"/>
<feGaussianBlur stdDeviation="2"/>
<feComposite in2="hardAlpha" operator="arithmetic" k2="-1" k3="1"/>
<feColorMatrix type="matrix" values="0 0 0 0 0 0 0 0 0 0 0 0 0 0 0 0 0 0 0.25 0"/>
<feBlend mode="normal" in2="shape" result="effect1_innerShadow"/>
</filter>
<filter id="filter14_f" x="155.253" y="142.974" width="25.8905" height="34.2931" filterUnits="userSpaceOnUse" color-interpolation-filters="sRGB">
<feFlood flood-opacity="0" result="BackgroundImageFix"/>
<feBlend mode="normal" in="SourceGraphic" in2="BackgroundImageFix" result="shape"/>
<feGaussianBlur stdDeviation="2" result="effect1_foregroundBlur"/>
</filter>
<filter id="filter15_i" x="163.989" y="151.547" width="8.65898" height="21.5615" filterUnits="userSpaceOnUse" color-interpolation-filters="sRGB">
<feFlood flood-opacity="0" result="BackgroundImageFix"/>
<feBlend mode="normal" in="SourceGraphic" in2="BackgroundImageFix" result="shape"/>
<feColorMatrix in="SourceAlpha" type="matrix" values="0 0 0 0 0 0 0 0 0 0 0 0 0 0 0 0 0 0 127 0" result="hardAlpha"/>
<feOffset dy="4"/>
<feGaussianBlur stdDeviation="2"/>
<feComposite in2="hardAlpha" operator="arithmetic" k2="-1" k3="1"/>
<feColorMatrix type="matrix" values="0 0 0 0 0 0 0 0 0 0 0 0 0 0 0 0 0 0 0.25 0"/>
<feBlend mode="normal" in2="shape" result="effect1_innerShadow"/>
</filter>
<filter id="filter16_f" x="124.982" y="121.349" width="25.8905" height="34.2931" filterUnits="userSpaceOnUse" color-interpolation-filters="sRGB">
<feFlood flood-opacity="0" result="BackgroundImageFix"/>
<feBlend mode="normal" in="SourceGraphic" in2="BackgroundImageFix" result="shape"/>
<feGaussianBlur stdDeviation="2" result="effect1_foregroundBlur"/>
</filter>
<filter id="filter17_i" x="133.718" y="129.921" width="8.65898" height="21.5615" filterUnits="userSpaceOnUse" color-interpolation-filters="sRGB">
<feFlood flood-opacity="0" result="BackgroundImageFix"/>
<feBlend mode="normal" in="SourceGraphic" in2="BackgroundImageFix" result="shape"/>
<feColorMatrix in="SourceAlpha" type="matrix" values="0 0 0 0 0 0 0 0 0 0 0 0 0 0 0 0 0 0 127 0" result="hardAlpha"/>
<feOffset dy="4"/>
<feGaussianBlur stdDeviation="2"/>
<feComposite in2="hardAlpha" operator="arithmetic" k2="-1" k3="1"/>
<feColorMatrix type="matrix" values="0 0 0 0 0 0 0 0 0 0 0 0 0 0 0 0 0 0 0.25 0"/>
<feBlend mode="normal" in2="shape" result="effect1_innerShadow"/>
</filter>
<filter id="filter18_f" x="150.099" y="211.044" width="25.8905" height="34.2931" filterUnits="userSpaceOnUse" color-interpolation-filters="sRGB">
<feFlood flood-opacity="0" result="BackgroundImageFix"/>
<feBlend mode="normal" in="SourceGraphic" in2="BackgroundImageFix" result="shape"/>
<feGaussianBlur stdDeviation="2" result="effect1_foregroundBlur"/>
</filter>
<filter id="filter19_i" x="158.835" y="219.616" width="8.65898" height="21.5615" filterUnits="userSpaceOnUse" color-interpolation-filters="sRGB">
<feFlood flood-opacity="0" result="BackgroundImageFix"/>
<feBlend mode="normal" in="SourceGraphic" in2="BackgroundImageFix" result="shape"/>
<feColorMatrix in="SourceAlpha" type="matrix" values="0 0 0 0 0 0 0 0 0 0 0 0 0 0 0 0 0 0 127 0" result="hardAlpha"/>
<feOffset dy="4"/>
<feGaussianBlur stdDeviation="2"/>
<feComposite in2="hardAlpha" operator="arithmetic" k2="-1" k3="1"/>
<feColorMatrix type="matrix" values="0 0 0 0 0 0 0 0 0 0 0 0 0 0 0 0 0 0 0.25 0"/>
<feBlend mode="normal" in2="shape" result="effect1_innerShadow"/>
</filter>
<filter id="filter20_f" x="137.664" y="176.195" width="25.8905" height="34.2931" filterUnits="userSpaceOnUse" color-interpolation-filters="sRGB">
<feFlood flood-opacity="0" result="BackgroundImageFix"/>
<feBlend mode="normal" in="SourceGraphic" in2="BackgroundImageFix" result="shape"/>
<feGaussianBlur stdDeviation="2" result="effect1_foregroundBlur"/>
</filter>
<filter id="filter21_i" x="146.4" y="184.768" width="8.65898" height="21.5615" filterUnits="userSpaceOnUse" color-interpolation-filters="sRGB">
<feFlood flood-opacity="0" result="BackgroundImageFix"/>
<feBlend mode="normal" in="SourceGraphic" in2="BackgroundImageFix" result="shape"/>
<feColorMatrix in="SourceAlpha" type="matrix" values="0 0 0 0 0 0 0 0 0 0 0 0 0 0 0 0 0 0 127 0" result="hardAlpha"/>
<feOffset dy="4"/>
<feGaussianBlur stdDeviation="2"/>
<feComposite in2="hardAlpha" operator="arithmetic" k2="-1" k3="1"/>
<feColorMatrix type="matrix" values="0 0 0 0 0 0 0 0 0 0 0 0 0 0 0 0 0 0 0.25 0"/>
<feBlend mode="normal" in2="shape" result="effect1_innerShadow"/>
</filter>
<filter id="filter22_i" x="113.753" y="219.455" width="16.044" height="21.7311" filterUnits="userSpaceOnUse" color-interpolation-filters="sRGB">
<feFlood flood-opacity="0" result="BackgroundImageFix"/>
<feBlend mode="normal" in="SourceGraphic" in2="BackgroundImageFix" result="shape"/>
<feColorMatrix in="SourceAlpha" type="matrix" values="0 0 0 0 0 0 0 0 0 0 0 0 0 0 0 0 0 0 127 0" result="hardAlpha"/>
<feOffset dy="4"/>
<feGaussianBlur stdDeviation="2"/>
<feComposite in2="hardAlpha" operator="arithmetic" k2="-1" k3="1"/>
<feColorMatrix type="matrix" values="0 0 0 0 0 0 0 0 0 0 0 0 0 0 0 0 0 0 0.25 0"/>
<feBlend mode="normal" in2="shape" result="effect1_innerShadow"/>
</filter>
<filter id="filter23_i" x="41.3115" y="162.112" width="11.4962" height="22.2659" filterUnits="userSpaceOnUse" color-interpolation-filters="sRGB">
<feFlood flood-opacity="0" result="BackgroundImageFix"/>
<feBlend mode="normal" in="SourceGraphic" in2="BackgroundImageFix" result="shape"/>
<feColorMatrix in="SourceAlpha" type="matrix" values="0 0 0 0 0 0 0 0 0 0 0 0 0 0 0 0 0 0 127 0" result="hardAlpha"/>
<feOffset dy="4"/>
<feGaussianBlur stdDeviation="2"/>
<feComposite in2="hardAlpha" operator="arithmetic" k2="-1" k3="1"/>
<feColorMatrix type="matrix" values="0 0 0 0 0 0 0 0 0 0 0 0 0 0 0 0 0 0 0.25 0"/>
<feBlend mode="normal" in2="shape" result="effect1_innerShadow"/>
</filter>
<filter id="filter24_i" x="79.5316" y="201.879" width="16.044" height="21.7311" filterUnits="userSpaceOnUse" color-interpolation-filters="sRGB">
<feFlood flood-opacity="0" result="BackgroundImageFix"/>
<feBlend mode="normal" in="SourceGraphic" in2="BackgroundImageFix" result="shape"/>
<feColorMatrix in="SourceAlpha" type="matrix" values="0 0 0 0 0 0 0 0 0 0 0 0 0 0 0 0 0 0 127 0" result="hardAlpha"/>
<feOffset dy="4"/>
<feGaussianBlur stdDeviation="2"/>
<feComposite in2="hardAlpha" operator="arithmetic" k2="-1" k3="1"/>
<feColorMatrix type="matrix" values="0 0 0 0 0 0 0 0 0 0 0 0 0 0 0 0 0 0 0.25 0"/>
<feBlend mode="normal" in2="shape" result="effect1_innerShadow"/>
</filter>
<filter id="filter25_i" x="66.2604" y="161.794" width="11.5946" height="22.2802" filterUnits="userSpaceOnUse" color-interpolation-filters="sRGB">
<feFlood flood-opacity="0" result="BackgroundImageFix"/>
<feBlend mode="normal" in="SourceGraphic" in2="BackgroundImageFix" result="shape"/>
<feColorMatrix in="SourceAlpha" type="matrix" values="0 0 0 0 0 0 0 0 0 0 0 0 0 0 0 0 0 0 127 0" result="hardAlpha"/>
<feOffset dy="4"/>
<feGaussianBlur stdDeviation="2"/>
<feComposite in2="hardAlpha" operator="arithmetic" k2="-1" k3="1"/>
<feColorMatrix type="matrix" values="0 0 0 0 0 0 0 0 0 0 0 0 0 0 0 0 0 0 0.25 0"/>
<feBlend mode="normal" in2="shape" result="effect1_innerShadow"/>
</filter>
<filter id="filter26_i" x="58.5947" y="129.984" width="8.04139" height="18.7945" filterUnits="userSpaceOnUse" color-interpolation-filters="sRGB">
<feFlood flood-opacity="0" result="BackgroundImageFix"/>
<feBlend mode="normal" in="SourceGraphic" in2="BackgroundImageFix" result="shape"/>
<feColorMatrix in="SourceAlpha" type="matrix" values="0 0 0 0 0 0 0 0 0 0 0 0 0 0 0 0 0 0 127 0" result="hardAlpha"/>
<feOffset dy="4"/>
<feGaussianBlur stdDeviation="2"/>
<feComposite in2="hardAlpha" operator="arithmetic" k2="-1" k3="1"/>
<feColorMatrix type="matrix" values="0 0 0 0 0 0 0 0 0 0 0 0 0 0 0 0 0 0 0.25 0"/>
<feBlend mode="normal" in2="shape" result="effect1_innerShadow"/>
</filter>
<filter id="filter27_i" x="149.113" y="249.837" width="11.8095" height="18.9561" filterUnits="userSpaceOnUse" color-interpolation-filters="sRGB">
<feFlood flood-opacity="0" result="BackgroundImageFix"/>
<feBlend mode="normal" in="SourceGraphic" in2="BackgroundImageFix" result="shape"/>
<feColorMatrix in="SourceAlpha" type="matrix" values="0 0 0 0 0 0 0 0 0 0 0 0 0 0 0 0 0 0 127 0" result="hardAlpha"/>
<feOffset dy="4"/>
<feGaussianBlur stdDeviation="2"/>
<feComposite in2="hardAlpha" operator="arithmetic" k2="-1" k3="1"/>
<feColorMatrix type="matrix" values="0 0 0 0 0 0 0 0 0 0 0 0 0 0 0 0 0 0 0.25 0"/>
<feBlend mode="normal" in2="shape" result="effect1_innerShadow"/>
</filter>
<filter id="filter28_i" x="178.035" y="272.479" width="10.3474" height="14.6565" filterUnits="userSpaceOnUse" color-interpolation-filters="sRGB">
<feFlood flood-opacity="0" result="BackgroundImageFix"/>
<feBlend mode="normal" in="SourceGraphic" in2="BackgroundImageFix" result="shape"/>
<feColorMatrix in="SourceAlpha" type="matrix" values="0 0 0 0 0 0 0 0 0 0 0 0 0 0 0 0 0 0 127 0" result="hardAlpha"/>
<feOffset dy="4"/>
<feGaussianBlur stdDeviation="2"/>
<feComposite in2="hardAlpha" operator="arithmetic" k2="-1" k3="1"/>
<feColorMatrix type="matrix" values="0 0 0 0 0 0 0 0 0 0 0 0 0 0 0 0 0 0 0.25 0"/>
<feBlend mode="normal" in2="shape" result="effect1_innerShadow"/>
</filter>
<filter id="filter29_f" x="111.685" y="97.5122" width="25.8905" height="34.2931" filterUnits="userSpaceOnUse" color-interpolation-filters="sRGB">
<feFlood flood-opacity="0" result="BackgroundImageFix"/>
<feBlend mode="normal" in="SourceGraphic" in2="BackgroundImageFix" result="shape"/>
<feGaussianBlur stdDeviation="2" result="effect1_foregroundBlur"/>
</filter>
<filter id="filter30_i" x="120.421" y="106.085" width="8.65898" height="21.5615" filterUnits="userSpaceOnUse" color-interpolation-filters="sRGB">
<feFlood flood-opacity="0" result="BackgroundImageFix"/>
<feBlend mode="normal" in="SourceGraphic" in2="BackgroundImageFix" result="shape"/>
<feColorMatrix in="SourceAlpha" type="matrix" values="0 0 0 0 0 0 0 0 0 0 0 0 0 0 0 0 0 0 127 0" result="hardAlpha"/>
<feOffset dy="4"/>
<feGaussianBlur stdDeviation="2"/>
<feComposite in2="hardAlpha" operator="arithmetic" k2="-1" k3="1"/>
<feColorMatrix type="matrix" values="0 0 0 0 0 0 0 0 0 0 0 0 0 0 0 0 0 0 0.25 0"/>
<feBlend mode="normal" in2="shape" result="effect1_innerShadow"/>
</filter>
<filter id="filter31_f" x="96.8331" y="138.087" width="24.5906" height="33.5349" filterUnits="userSpaceOnUse" color-interpolation-filters="sRGB">
<feFlood flood-opacity="0" result="BackgroundImageFix"/>
<feBlend mode="normal" in="SourceGraphic" in2="BackgroundImageFix" result="shape"/>
<feGaussianBlur stdDeviation="2" result="effect1_foregroundBlur"/>
</filter>
<filter id="filter32_i" x="105.356" y="146.449" width="7.76139" height="21.2377" filterUnits="userSpaceOnUse" color-interpolation-filters="sRGB">
<feFlood flood-opacity="0" result="BackgroundImageFix"/>
<feBlend mode="normal" in="SourceGraphic" in2="BackgroundImageFix" result="shape"/>
<feColorMatrix in="SourceAlpha" type="matrix" values="0 0 0 0 0 0 0 0 0 0 0 0 0 0 0 0 0 0 127 0" result="hardAlpha"/>
<feOffset dy="4"/>
<feGaussianBlur stdDeviation="2"/>
<feComposite in2="hardAlpha" operator="arithmetic" k2="-1" k3="1"/>
<feColorMatrix type="matrix" values="0 0 0 0 0 0 0 0 0 0 0 0 0 0 0 0 0 0 0.25 0"/>
<feBlend mode="normal" in2="shape" result="effect1_innerShadow"/>
</filter>
<filter id="filter33_f" x="80.0724" y="127.035" width="24.5906" height="33.5349" filterUnits="userSpaceOnUse" color-interpolation-filters="sRGB">
<feFlood flood-opacity="0" result="BackgroundImageFix"/>
<feBlend mode="normal" in="SourceGraphic" in2="BackgroundImageFix" result="shape"/>
<feGaussianBlur stdDeviation="2" result="effect1_foregroundBlur"/>
</filter>
<filter id="filter34_i" x="88.5957" y="135.397" width="7.76139" height="21.2377" filterUnits="userSpaceOnUse" color-interpolation-filters="sRGB">
<feFlood flood-opacity="0" result="BackgroundImageFix"/>
<feBlend mode="normal" in="SourceGraphic" in2="BackgroundImageFix" result="shape"/>
<feColorMatrix in="SourceAlpha" type="matrix" values="0 0 0 0 0 0 0 0 0 0 0 0 0 0 0 0 0 0 127 0" result="hardAlpha"/>
<feOffset dy="4"/>
<feGaussianBlur stdDeviation="2"/>
<feComposite in2="hardAlpha" operator="arithmetic" k2="-1" k3="1"/>
<feColorMatrix type="matrix" values="0 0 0 0 0 0 0 0 0 0 0 0 0 0 0 0 0 0 0.25 0"/>
<feBlend mode="normal" in2="shape" result="effect1_innerShadow"/>
</filter>
<filter id="filter35_f" x="101.506" y="161.772" width="24.5906" height="33.5349" filterUnits="userSpaceOnUse" color-interpolation-filters="sRGB">
<feFlood flood-opacity="0" result="BackgroundImageFix"/>
<feBlend mode="normal" in="SourceGraphic" in2="BackgroundImageFix" result="shape"/>
<feGaussianBlur stdDeviation="2" result="effect1_foregroundBlur"/>
</filter>
<filter id="filter36_i" x="110.029" y="170.133" width="7.76139" height="21.2377" filterUnits="userSpaceOnUse" color-interpolation-filters="sRGB">
<feFlood flood-opacity="0" result="BackgroundImageFix"/>
<feBlend mode="normal" in="SourceGraphic" in2="BackgroundImageFix" result="shape"/>
<feColorMatrix in="SourceAlpha" type="matrix" values="0 0 0 0 0 0 0 0 0 0 0 0 0 0 0 0 0 0 127 0" result="hardAlpha"/>
<feOffset dy="4"/>
<feGaussianBlur stdDeviation="2"/>
<feComposite in2="hardAlpha" operator="arithmetic" k2="-1" k3="1"/>
<feColorMatrix type="matrix" values="0 0 0 0 0 0 0 0 0 0 0 0 0 0 0 0 0 0 0.25 0"/>
<feBlend mode="normal" in2="shape" result="effect1_innerShadow"/>
</filter>
<filter id="filter37_f" x="190.01" y="172.284" width="31.1411" height="36.7488" filterUnits="userSpaceOnUse" color-interpolation-filters="sRGB">
<feFlood flood-opacity="0" result="BackgroundImageFix"/>
<feBlend mode="normal" in="SourceGraphic" in2="BackgroundImageFix" result="shape"/>
<feGaussianBlur stdDeviation="2" result="effect1_foregroundBlur"/>
</filter>
<filter id="filter38_i" x="199.535" y="181.645" width="12.4262" height="22.3675" filterUnits="userSpaceOnUse" color-interpolation-filters="sRGB">
<feFlood flood-opacity="0" result="BackgroundImageFix"/>
<feBlend mode="normal" in="SourceGraphic" in2="BackgroundImageFix" result="shape"/>
<feColorMatrix in="SourceAlpha" type="matrix" values="0 0 0 0 0 0 0 0 0 0 0 0 0 0 0 0 0 0 127 0" result="hardAlpha"/>
<feOffset dy="4"/>
<feGaussianBlur stdDeviation="2"/>
<feComposite in2="hardAlpha" operator="arithmetic" k2="-1" k3="1"/>
<feColorMatrix type="matrix" values="0 0 0 0 0 0 0 0 0 0 0 0 0 0 0 0 0 0 0.25 0"/>
<feBlend mode="normal" in2="shape" result="effect1_innerShadow"/>
</filter>
<filter id="filter39_f" x="219.255" y="168.078" width="21.0692" height="30.462" filterUnits="userSpaceOnUse" color-interpolation-filters="sRGB">
<feFlood flood-opacity="0" result="BackgroundImageFix"/>
<feBlend mode="normal" in="SourceGraphic" in2="BackgroundImageFix" result="shape"/>
<feGaussianBlur stdDeviation="2" result="effect1_foregroundBlur"/>
</filter>
<filter id="filter40_i" x="226.822" y="175.807" width="6.03617" height="19.243" filterUnits="userSpaceOnUse" color-interpolation-filters="sRGB">
<feFlood flood-opacity="0" result="BackgroundImageFix"/>
<feBlend mode="normal" in="SourceGraphic" in2="BackgroundImageFix" result="shape"/>
<feColorMatrix in="SourceAlpha" type="matrix" values="0 0 0 0 0 0 0 0 0 0 0 0 0 0 0 0 0 0 127 0" result="hardAlpha"/>
<feOffset dy="4"/>
<feGaussianBlur stdDeviation="2"/>
<feComposite in2="hardAlpha" operator="arithmetic" k2="-1" k3="1"/>
<feColorMatrix type="matrix" values="0 0 0 0 0 0 0 0 0 0 0 0 0 0 0 0 0 0 0.25 0"/>
<feBlend mode="normal" in2="shape" result="effect1_innerShadow"/>
</filter>
<filter id="filter41_f" x="172.524" y="186.757" width="21.0692" height="30.462" filterUnits="userSpaceOnUse" color-interpolation-filters="sRGB">
<feFlood flood-opacity="0" result="BackgroundImageFix"/>
<feBlend mode="normal" in="SourceGraphic" in2="BackgroundImageFix" result="shape"/>
<feGaussianBlur stdDeviation="2" result="effect1_foregroundBlur"/>
</filter>
<filter id="filter42_i" x="180.091" y="194.485" width="6.03617" height="19.243" filterUnits="userSpaceOnUse" color-interpolation-filters="sRGB">
<feFlood flood-opacity="0" result="BackgroundImageFix"/>
<feBlend mode="normal" in="SourceGraphic" in2="BackgroundImageFix" result="shape"/>
<feColorMatrix in="SourceAlpha" type="matrix" values="0 0 0 0 0 0 0 0 0 0 0 0 0 0 0 0 0 0 127 0" result="hardAlpha"/>
<feOffset dy="4"/>
<feGaussianBlur stdDeviation="2"/>
<feComposite in2="hardAlpha" operator="arithmetic" k2="-1" k3="1"/>
<feColorMatrix type="matrix" values="0 0 0 0 0 0 0 0 0 0 0 0 0 0 0 0 0 0 0.25 0"/>
<feBlend mode="normal" in2="shape" result="effect1_innerShadow"/>
</filter>
<filter id="filter43_f" x="203.708" y="201.37" width="21.0692" height="30.462" filterUnits="userSpaceOnUse" color-interpolation-filters="sRGB">
<feFlood flood-opacity="0" result="BackgroundImageFix"/>
<feBlend mode="normal" in="SourceGraphic" in2="BackgroundImageFix" result="shape"/>
<feGaussianBlur stdDeviation="2" result="effect1_foregroundBlur"/>
</filter>
<filter id="filter44_i" x="211.275" y="209.099" width="6.03617" height="19.243" filterUnits="userSpaceOnUse" color-interpolation-filters="sRGB">
<feFlood flood-opacity="0" result="BackgroundImageFix"/>
<feBlend mode="normal" in="SourceGraphic" in2="BackgroundImageFix" result="shape"/>
<feColorMatrix in="SourceAlpha" type="matrix" values="0 0 0 0 0 0 0 0 0 0 0 0 0 0 0 0 0 0 127 0" result="hardAlpha"/>
<feOffset dy="4"/>
<feGaussianBlur stdDeviation="2"/>
<feComposite in2="hardAlpha" operator="arithmetic" k2="-1" k3="1"/>
<feColorMatrix type="matrix" values="0 0 0 0 0 0 0 0 0 0 0 0 0 0 0 0 0 0 0.25 0"/>
<feBlend mode="normal" in2="shape" result="effect1_innerShadow"/>
</filter>
<filter id="filter45_f" x="224.709" y="209.291" width="18.2805" height="23.4363" filterUnits="userSpaceOnUse" color-interpolation-filters="sRGB">
<feFlood flood-opacity="0" result="BackgroundImageFix"/>
<feBlend mode="normal" in="SourceGraphic" in2="BackgroundImageFix" result="shape"/>
<feGaussianBlur stdDeviation="2" result="effect1_foregroundBlur"/>
</filter>
<filter id="filter46_i" x="231.692" y="215.931" width="4.54618" height="14.5046" filterUnits="userSpaceOnUse" color-interpolation-filters="sRGB">
<feFlood flood-opacity="0" result="BackgroundImageFix"/>
<feBlend mode="normal" in="SourceGraphic" in2="BackgroundImageFix" result="shape"/>
<feColorMatrix in="SourceAlpha" type="matrix" values="0 0 0 0 0 0 0 0 0 0 0 0 0 0 0 0 0 0 127 0" result="hardAlpha"/>
<feOffset dy="4"/>
<feGaussianBlur stdDeviation="2"/>
<feComposite in2="hardAlpha" operator="arithmetic" k2="-1" k3="1"/>
<feColorMatrix type="matrix" values="0 0 0 0 0 0 0 0 0 0 0 0 0 0 0 0 0 0 0.25 0"/>
<feBlend mode="normal" in2="shape" result="effect1_innerShadow"/>
</filter>
<filter id="filter47_f" x="207.513" y="239.303" width="18.2805" height="23.4363" filterUnits="userSpaceOnUse" color-interpolation-filters="sRGB">
<feFlood flood-opacity="0" result="BackgroundImageFix"/>
<feBlend mode="normal" in="SourceGraphic" in2="BackgroundImageFix" result="shape"/>
<feGaussianBlur stdDeviation="2" result="effect1_foregroundBlur"/>
</filter>
<filter id="filter48_i" x="214.495" y="245.944" width="4.54618" height="14.5046" filterUnits="userSpaceOnUse" color-interpolation-filters="sRGB">
<feFlood flood-opacity="0" result="BackgroundImageFix"/>
<feBlend mode="normal" in="SourceGraphic" in2="BackgroundImageFix" result="shape"/>
<feColorMatrix in="SourceAlpha" type="matrix" values="0 0 0 0 0 0 0 0 0 0 0 0 0 0 0 0 0 0 127 0" result="hardAlpha"/>
<feOffset dy="4"/>
<feGaussianBlur stdDeviation="2"/>
<feComposite in2="hardAlpha" operator="arithmetic" k2="-1" k3="1"/>
<feColorMatrix type="matrix" values="0 0 0 0 0 0 0 0 0 0 0 0 0 0 0 0 0 0 0.25 0"/>
<feBlend mode="normal" in2="shape" result="effect1_innerShadow"/>
</filter>
<filter id="filter49_f" x="176.49" y="237.689" width="18.2805" height="23.4363" filterUnits="userSpaceOnUse" color-interpolation-filters="sRGB">
<feFlood flood-opacity="0" result="BackgroundImageFix"/>
<feBlend mode="normal" in="SourceGraphic" in2="BackgroundImageFix" result="shape"/>
<feGaussianBlur stdDeviation="2" result="effect1_foregroundBlur"/>
</filter>
<filter id="filter50_i" x="183.473" y="244.329" width="4.54618" height="14.5046" filterUnits="userSpaceOnUse" color-interpolation-filters="sRGB">
<feFlood flood-opacity="0" result="BackgroundImageFix"/>
<feBlend mode="normal" in="SourceGraphic" in2="BackgroundImageFix" result="shape"/>
<feColorMatrix in="SourceAlpha" type="matrix" values="0 0 0 0 0 0 0 0 0 0 0 0 0 0 0 0 0 0 127 0" result="hardAlpha"/>
<feOffset dy="4"/>
<feGaussianBlur stdDeviation="2"/>
<feComposite in2="hardAlpha" operator="arithmetic" k2="-1" k3="1"/>
<feColorMatrix type="matrix" values="0 0 0 0 0 0 0 0 0 0 0 0 0 0 0 0 0 0 0.25 0"/>
<feBlend mode="normal" in2="shape" result="effect1_innerShadow"/>
</filter>
<filter id="filter51_f" x="188.303" y="222.541" width="18.2805" height="23.4363" filterUnits="userSpaceOnUse" color-interpolation-filters="sRGB">
<feFlood flood-opacity="0" result="BackgroundImageFix"/>
<feBlend mode="normal" in="SourceGraphic" in2="BackgroundImageFix" result="shape"/>
<feGaussianBlur stdDeviation="2" result="effect1_foregroundBlur"/>
</filter>
<filter id="filter52_i" x="195.285" y="229.181" width="4.54618" height="14.5046" filterUnits="userSpaceOnUse" color-interpolation-filters="sRGB">
<feFlood flood-opacity="0" result="BackgroundImageFix"/>
<feBlend mode="normal" in="SourceGraphic" in2="BackgroundImageFix" result="shape"/>
<feColorMatrix in="SourceAlpha" type="matrix" values="0 0 0 0 0 0 0 0 0 0 0 0 0 0 0 0 0 0 127 0" result="hardAlpha"/>
<feOffset dy="4"/>
<feGaussianBlur stdDeviation="2"/>
<feComposite in2="hardAlpha" operator="arithmetic" k2="-1" k3="1"/>
<feColorMatrix type="matrix" values="0 0 0 0 0 0 0 0 0 0 0 0 0 0 0 0 0 0 0.25 0"/>
<feBlend mode="normal" in2="shape" result="effect1_innerShadow"/>
</filter>
</defs>
</svg>
