<svg width="111" height="112" viewBox="0 0 111 112" fill="none" xmlns="http://www.w3.org/2000/svg">
<g filter="url(#filter0_d)">
<path d="M21.7509 26.0848C19.7904 27.3124 18.0633 28.971 16.6163 30.8907C12.7653 35.997 10.6414 42.7749 11.0498 49.4353C11.4583 56.1087 14.4691 62.5732 19.277 66.5564C21.5292 68.4239 24.1082 69.7168 26.7572 70.7354C36.198 74.3399 46.7124 74.3137 56.1298 70.631C58.137 69.8474 60.1208 68.894 61.8596 67.5228C65.2555 64.8456 67.5428 60.7318 69.3049 56.5136C70.2968 54.1367 71.1603 51.6815 71.7088 49.1349C72.1173 47.2282 72.3507 45.2693 72.3973 43.2973C72.6191 34.8478 68.6514 26.568 62.1514 22.2584C55.523 17.8704 37.2833 16.3163 21.7509 26.0848Z" fill="#EA3017"/>
<g opacity="0.29">
<path opacity="0.29" d="M36.2916 32.5887C37.0968 33.2025 40.1659 34.5738 41.8697 35.6055C44.4837 37.2118 46.4559 38.8442 48.5214 41.1427C49.595 42.3442 49.9685 45.596 49.7117 47.0587C49.0816 50.5456 46.7476 54.6463 47.0627 59.3477C47.3545 63.6443 49.9335 66.7525 53.8661 66.9615C62.9568 67.4577 67.4263 57.4019 67.9981 48.6258C68.4999 40.9338 65.6059 32.9413 60.3545 27.9003C55.8967 23.6168 48.4981 20.4042 42.5816 21.8929C40.3993 22.4414 36.7351 23.6168 35.6965 26.1504C34.8329 28.2921 34.2728 31.0477 36.2916 32.5887Z" fill="#FE6E27"/>
</g>
<g opacity="0.49">
<path opacity="0.49" d="M45.6972 35.1352C48.0545 35.749 49.9683 36.7285 52.4773 36.5326C55.5464 36.2844 59.3974 35.7098 61.4163 32.8367C62.805 30.8778 63.5985 28.7882 62.98 26.2286C62.2682 23.3555 59.8292 21.2006 57.1335 21.2529C54.2978 21.3051 52.524 22.82 50.1901 24.2566C49.0114 24.9879 47.2026 26.3331 45.6972 26.7901C42.0913 27.9002 41.9163 34.1427 45.6972 35.1352Z" fill="#FE6E27"/>
</g>
<g opacity="0.49">
<path opacity="0.49" d="M16.2079 43.0236C13.0687 48.2736 14.6792 56.7884 17.9583 61.5421C21.681 66.9487 28.8928 70.958 34.926 68.1633C38.1935 66.6484 38.9754 62.2473 35.8946 59.8705C32.8838 57.5459 29.1379 57.2847 25.9754 55.3127C22.8479 53.3537 20.1872 47.2419 19.5454 43.5068C19.2187 41.6524 17.0131 41.6916 16.2079 43.0236Z" fill="#B60807"/>
</g>
<path d="M55.768 38.8048C57.4134 39.1705 59.0705 39.0007 60.6926 38.5698C63.2016 37.8907 65.9556 35.2526 65.5822 32.0792C65.3021 29.6762 64.0184 27.7564 61.6728 27.7042C59.1522 27.652 57.5885 29.4934 56.3048 31.6351C55.978 32.1836 55.6863 32.7713 55.3595 33.3198C55.7563 32.6799 55.2428 33.4504 55.1728 33.5418C55.0211 33.7377 54.8344 33.8944 54.6594 34.0512C53.1656 35.3571 54.0059 38.4261 55.768 38.8048Z" fill="#FEA489"/>
<path d="M16.99 24.6225C19.0556 24.4005 20.9811 24.4658 23.0116 25.0143C24.9137 25.5236 26.5242 26.6468 28.508 26.8688C31.3554 27.1822 35.3348 27.5609 37.342 24.8968C38.0888 23.9173 38.1472 22.6244 37.342 21.645C34.7513 18.5107 30.9936 20.7177 27.9012 21.7886C25.7423 22.533 23.1283 22.1282 20.8877 22.4677C19.429 22.6897 18.157 23.3427 16.85 24.0349C16.6049 24.1785 16.7216 24.6487 16.99 24.6225Z" fill="#4E691C"/>
<path d="M26.8043 10.5705C24.412 17.27 30.3169 20.7569 33.7361 24.936C36.2684 28.0311 40.2828 22.8073 36.9802 20.2345C35.4515 19.0461 33.8528 17.9752 32.1723 17.1003C30.1301 16.0294 28.2046 13.8223 28.6014 11.119C28.7765 9.79996 27.2477 9.32982 26.8043 10.5705Z" fill="#4E691C"/>
<path d="M54.4848 14.2272C46.7595 10.5836 41.4148 18.6544 34.553 20.2215C31.1105 21.0051 32.9659 27.2214 36.5252 25.4453C39.5243 23.9435 41.9633 21.8801 44.6356 19.7905C47.7281 17.3745 51.159 17.5835 54.4965 16.0555C55.29 15.6898 55.2784 14.6059 54.4848 14.2272Z" fill="#4E691C"/>
<path d="M51.7656 20.4833C48.8132 23.4478 44.9039 24.4926 41.0646 23.3564C39.0224 22.7557 34.5062 20.3266 32.7557 22.7948C30.8419 25.4851 34.1678 29.3507 36.1866 26.6343C36.21 26.5952 36.245 26.556 36.2683 26.5168C35.6965 26.778 35.1247 27.0523 34.5529 27.3134C38.824 26.8955 42.4883 28.8806 46.7944 27.6791C49.7351 26.8564 52.1391 24.5187 52.9676 21.2669C53.1894 20.4572 52.2908 19.9609 51.7656 20.4833Z" fill="#4E691C"/>
<path d="M25.9755 33.8954C27.971 34.026 29.8265 33.1641 31.5886 32.1846C32.5455 31.6491 33.4441 30.97 34.296 30.2518C35.1478 29.5335 35.9297 28.4234 36.8283 27.8749C38.8588 26.6343 38.7654 23.2388 36.8283 21.972C34.7044 20.5746 32.4171 22.403 32.2304 24.9235C31.997 28.11 28.3794 31.61 25.7654 32.2238C24.8785 32.4197 25.1469 33.8432 25.9755 33.8954Z" fill="#4E691C"/>
<path d="M40.2009 5.17691C35.7081 9.61716 34.7978 16.5126 35.1246 22.8334C35.323 26.5685 40.4576 25.2103 39.0223 21.6581C37.1901 17.1133 39.8508 10.1787 41.2629 5.86907C41.4962 5.15079 40.6327 4.74595 40.2009 5.17691Z" fill="#415613"/>
<path d="M38.94 8.8205C37.668 8.44177 36.3377 9.02945 35.6608 10.3093C35.0657 11.4324 35.159 12.6731 35.6725 13.8093C36.9445 16.6301 41.0872 15.298 40.9705 12.2029C40.9589 11.8764 40.9239 11.563 40.8655 11.2365C40.7721 10.9753 40.6788 10.7272 40.5738 10.466C40.9005 12.0332 40.9705 12.2029 40.7838 10.9361C40.4804 9.94362 39.8969 9.10781 38.94 8.8205Z" fill="#415613"/>
<path d="M28.1341 17.9355C29.1844 20.5866 31.9151 22.6369 34.4008 23.2899C34.9609 23.4336 35.2176 22.65 34.7742 22.2843C32.732 20.6258 30.188 20.025 28.6359 17.5959C28.4142 17.2564 27.9824 17.5437 28.1341 17.9355Z" fill="#415613"/>
<path d="M53.2123 15.9512C49.4079 14.6714 44.0049 17.2441 41.4025 20.3523C40.9708 20.8747 41.5076 21.5407 42.0444 21.2795C43.6898 20.4829 45.2069 19.3989 46.8289 18.524C48.9061 17.4008 51.0417 17.0352 53.2123 16.2647C53.3406 16.2124 53.3523 15.9904 53.2123 15.9512Z" fill="#415613"/>
<path d="M38.3915 26.4253C41.6123 29.4159 46.8753 28.3581 49.641 25.1454C50.0378 24.6884 49.536 23.9962 49.0459 24.2835C45.4866 26.3992 42.5109 27.3394 38.5315 26.151C38.4031 26.1118 38.2748 26.3208 38.3915 26.4253Z" fill="#415613"/>
<path d="M30.4102 30.2381C31.7172 28.5665 33.9811 26.9994 33.9694 24.5311C33.9694 24.0479 33.4093 23.9042 33.1759 24.296C32.6274 25.2363 32.2423 26.255 31.6589 27.1822C31.0987 28.0702 30.5619 29.0105 30.0951 29.9639C30.0018 30.1859 30.2585 30.434 30.4102 30.2381Z" fill="#415613"/>
<path d="M24.7155 22.8983C26.0925 23.499 27.2478 23.6035 28.7182 23.4207C29.3483 23.3423 29.9552 23.1725 30.5737 23.042C31.6823 22.7938 32.7326 22.9636 33.8412 22.8461C34.343 22.7938 34.6931 21.958 34.1329 21.6576C31.1571 20.1166 27.7963 23.1334 24.7272 22.8461C24.6921 22.833 24.6921 22.8852 24.7155 22.8983Z" fill="#415613"/>
<path d="M20.9575 24.022C22.1944 24.1395 23.3964 24.466 24.6217 24.6097C24.9251 24.6489 24.9602 24.1265 24.6917 24.022C23.4898 23.591 22.1944 23.5649 20.9575 23.7216C20.7824 23.7347 20.7824 23.9959 20.9575 24.022Z" fill="#67822B"/>
<path d="M23.2327 23.3951C23.8045 23.4473 24.423 23.604 24.9831 23.4865C25.2399 23.4342 25.2399 22.9641 24.9831 22.9119C24.4113 22.7943 23.8045 22.951 23.2327 23.0033C23.011 23.0294 23.011 23.3689 23.2327 23.3951Z" fill="#67822B"/>
<path d="M26.0217 24.5707C27.0253 25.08 28.2857 25.4718 29.3593 25.1061C29.6744 25.0016 29.6744 24.5054 29.3593 24.3878C28.3323 24.0222 27.177 24.3878 26.1034 24.2311C25.9517 24.2181 25.8934 24.5054 26.0217 24.5707Z" fill="#67822B"/>
<path d="M27.7491 13.6136C27.3523 15.8468 29.8496 18.5109 31.6234 18.968C32.0669 19.0856 32.5336 18.4065 32.1135 18.0277C31.46 17.4531 30.7715 16.9438 30.0947 16.3953C29.3245 15.7554 28.1342 14.8282 28.0408 13.6528C28.0175 13.4961 27.7841 13.4308 27.7491 13.6136Z" fill="#67822B"/>
<path d="M39.3605 20.9142C39.979 19.7258 41.3793 19.2948 42.3479 18.5504C42.698 18.2762 42.4646 17.7538 42.0678 17.8191C40.8308 18.015 39.3721 19.4385 39.2088 20.8619C39.1971 20.9664 39.3255 20.9925 39.3605 20.9142Z" fill="#67822B"/>
<path d="M37.5396 13.5215C38.8467 14.2137 40.2353 12.2939 39.6168 10.9357C39.3484 10.3611 38.6483 10.4656 38.3682 10.9357C38.0298 11.4973 38.3565 12.6465 37.6213 12.8685C37.3763 12.9469 37.2829 13.3909 37.5396 13.5215Z" fill="#4E691C"/>
<path d="M37.0265 16.7865C35.6378 18.3928 36.3613 21.5402 37.3999 23.1204C37.7033 23.5905 38.3568 23.3163 38.2518 22.7155C38.0767 21.7883 37.8433 20.8741 37.6683 19.9469C37.4816 18.9413 37.5166 17.988 37.4582 16.9693C37.4466 16.7473 37.1898 16.6036 37.0265 16.7865Z" fill="#4E691C"/>
<path d="M39.2791 9.10745C39.2558 9.17275 39.2325 9.23805 39.2208 9.30334C39.1741 9.447 39.4192 9.447 39.3725 9.30334C39.3492 9.23805 39.3258 9.17275 39.3141 9.10745C39.3025 9.09439 39.2791 9.09439 39.2791 9.10745Z" fill="#4E691C"/>
<path d="M39.1274 9.48653C39.7342 9.21228 40.1427 8.23281 40.5161 7.67125C40.7612 7.30558 40.2944 6.8485 39.9676 7.05745C39.3725 7.47536 38.649 8.52012 38.9524 9.38205C38.9757 9.44735 39.0574 9.52571 39.1274 9.48653Z" fill="#4E691C"/>
<path d="M61.79 32.7715C63.3187 32.7715 64.5907 31.348 64.5907 29.6372C64.5907 27.9264 63.3187 26.5029 61.79 26.5029C60.2612 26.5029 58.9893 27.9264 58.9893 29.6372C58.9893 31.348 60.2612 32.7715 61.79 32.7715Z" fill="white"/>
<path d="M67.6359 42.6057C62.933 40.3334 57.775 38.3353 52.7804 39.602C50.5865 40.1505 48.5443 41.3128 46.7005 42.7494C41.7993 46.5628 38.17 52.4788 37.0147 59.0347C35.8594 65.5906 37.2598 72.7211 40.9707 77.958C42.7095 80.4131 44.9034 82.4243 47.2257 84.1743C55.4995 90.4037 65.6637 93.4335 75.6063 92.6369C77.7302 92.4671 79.8657 92.1145 81.8613 91.3048C85.7706 89.6985 88.9331 86.4075 91.6171 82.8422C93.1342 80.8441 94.5345 78.7154 95.6548 76.4169C96.495 74.6931 97.1719 72.8647 97.6737 70.9841C99.8559 62.9003 98.4089 53.184 92.6791 47.6859C88.4313 43.6113 82.3631 42.3576 76.89 43.6766C75.7113 43.9639 74.5327 44.3557 73.3191 44.3949C71.3469 44.4341 69.4564 43.4938 67.6359 42.6057Z" fill="#E74B1B"/>
<path d="M64.3566 58.5773C59.8288 59.6481 56.2812 66.4391 56.4796 71.2973C56.6547 75.6461 59.0003 79.4726 62.8513 80.661C67.169 81.993 72.5954 79.0677 73.529 73.87C73.9141 71.7413 73.9958 70.2917 73.6224 68.1499C73.5407 67.6667 73.459 67.1705 73.4006 66.6742C73.494 67.4969 73.599 68.3197 73.6924 69.1424C73.424 66.6611 73.1672 64.6761 72.0353 62.469C70.4132 59.3347 67.5541 57.8198 64.3566 58.5773Z" fill="#FECDA4"/>
<g opacity="0.55">
<path opacity="0.55" d="M67.2155 59.23C67.0054 59.9613 66.8537 60.7057 66.737 61.4501C66.6203 62.2206 66.527 63.0042 66.4686 63.7747C66.3636 65.0806 66.7487 66.1646 67.2038 67.353C67.6823 68.6067 69.0826 69.5992 70.2146 69.9388C71.5099 70.3436 72.9336 70.1347 74.0889 69.3772C76.7613 67.6273 77.5548 62.9781 75.1042 60.5359C74.7424 60.1703 74.369 59.8438 73.9605 59.5303C73.5638 59.3475 73.167 59.1516 72.7702 58.9688C73.6921 59.4259 73.9255 59.5303 73.4821 59.2822C73.1903 59.1255 72.9219 58.9427 72.6535 58.7598C72.3851 58.577 72.1284 58.3811 71.8717 58.1852C71.7316 58.0807 71.6033 57.9632 71.4632 57.8587C72.1517 58.4333 71.72 58.0807 71.5683 57.9371C70.0395 56.5528 67.834 57.0098 67.2155 59.23Z" fill="#FFE793"/>
</g>
<g opacity="0.55">
<path opacity="0.55" d="M64.5196 56.4615C62.1507 55.9783 59.1516 55.913 57.4828 58.2637C56.5843 59.5436 55.9541 60.7059 55.9541 62.4036C55.9541 63.9446 56.5142 65.4465 57.4828 66.5435C59.5134 68.8159 62.8275 68.7636 64.8697 66.5435C65.7333 65.6032 66.0834 64.5846 66.5268 63.37C66.3518 63.814 66.1884 64.2711 66.0134 64.7152C66.4335 63.6965 66.7952 62.6126 67.087 61.5286C67.6121 59.5175 66.4685 56.8664 64.5196 56.4615Z" fill="#FFE793"/>
</g>
<g opacity="0.55">
<path opacity="0.55" d="M62.9214 68.4496C64.065 65.3806 63.0964 61.4497 61.9178 58.5897C60.7392 55.7166 57.0866 55.0244 54.8226 56.5132C52.3487 58.1326 51.5785 61.6978 52.9672 64.4534C54.2042 66.9086 54.9627 69.5205 57.2499 71.0485C59.6072 72.6026 61.9878 70.9701 62.9214 68.4496Z" fill="#FECA90"/>
</g>
<g opacity="0.55">
<path opacity="0.55" d="M67.9388 73.5042C69.5375 75.5154 72.6066 75.2281 74.6138 74.3661C75.6991 73.896 76.7844 73.3867 77.7996 72.7467C78.4298 72.355 78.9433 71.7803 79.5501 71.3624C83.1327 68.8811 83.9262 63.2394 80.8804 59.8309C77.9397 56.5398 72.6416 57.1667 70.5761 61.3196C70.191 62.0902 69.9109 62.939 69.6075 63.7487C69.1057 65.12 70.226 62.2991 69.6425 63.6181C69.4558 64.023 69.2224 64.4017 68.989 64.7804C68.2305 66.0341 69.7242 63.7748 68.8373 65.0024C67.1102 67.3793 65.8499 70.8792 67.9388 73.5042Z" fill="#FECA90"/>
</g>
<path d="M69.6199 54.2939C73.4826 56.1483 79.5275 59.0084 82.0598 62.9524C83.9503 65.9038 82.4215 69.8086 81.0095 72.4597C78.6289 76.913 73.9377 76.2992 70.0517 75.372C61.6729 73.387 60.5409 88.1965 68.5463 87.8178C80.4494 87.2693 93.5544 79.5249 92.6092 64.3497C92.2007 57.6241 87.5329 53.6931 82.6549 50.8462C78.7456 48.5738 73.0158 45.1 68.9781 48.6783C67.4727 50.0234 67.8461 53.445 69.6199 54.2939Z" fill="#D51F12"/>
<path d="M69.3158 48.8082C67.507 41.6647 59.5482 42.1479 54.577 44.0154C48.8471 46.1571 44.7978 49.0041 42.0437 55.1421C36.4306 67.6662 43.129 80.9217 54.5536 85.0616C60.9953 87.3992 64.4028 77.043 59.0114 73.2296C56.5725 71.5057 53.3516 70.6046 51.5078 67.9405C49.8624 65.5506 50.831 59.9872 52.9432 58.2503C56.6658 55.1552 71.8247 58.7074 69.3158 48.8082Z" fill="#D51F12"/>
<path opacity="0.4" d="M69.3864 48.2865C68.2662 45.4656 67.4843 42.6317 64.6019 41.3127C61.4044 39.85 58.6037 39.8892 55.3128 40.947C48.1476 43.2585 41.4609 48.4954 37.7733 55.8218C33.7006 63.9057 35.4394 72.5381 40.9591 79.094C45.0668 83.9782 54.3676 92.8065 60.6809 89.189C62.4897 88.1573 62.7931 85.8066 61.6728 84.0305C60.4241 82.0585 59.1755 82.7114 57.4017 81.4316C55.2661 79.8775 52.8038 77.7096 50.7383 76.025C46.6656 72.7078 42.8963 64.9243 44.9385 59.1259C46.6889 54.1371 49.513 52.361 53.6441 50.3629C55.5462 49.4488 59.2455 48.9656 61.311 48.848C62.8631 48.7697 67.1109 49.6969 68.5579 50.5196C69.5848 51.1204 69.7832 49.279 69.3864 48.2865Z" fill="#FF8D4F"/>
<g opacity="0.4">
<path opacity="0.4" d="M68.5689 50.5323C71.9297 50.7412 76.6093 52.0341 81.0321 54.0453C84.778 55.743 88.5474 61.1628 89.2825 65.4985C90.1694 70.7485 87.7655 75.2932 84.3579 78.5842C82.3508 80.5301 80.0868 81.5879 77.4728 81.9797C76.6326 82.1103 73.1667 82.92 72.3148 82.9461C70.0976 82.9983 67.3202 82.489 65.7798 84.0692C62.804 87.1382 65.4997 94.4907 70.0743 94.334C83.7978 93.8508 99.4118 84.7091 99.4935 67.3269C99.5285 59.2952 95.8526 52.0994 90.0177 47.5678C84.2762 43.1014 73.4234 41.4951 68.4755 48.2469C68.0321 48.8476 68.0671 49.9838 68.5689 50.5323Z" fill="#FF8D4F"/>
</g>
<path d="M65.9554 41.9001C69.1529 45.4653 73.6807 46.1444 77.9518 45.622C87.7076 44.4467 92.3755 47.5679 95.5147 55.9391C101.688 72.4464 88.2561 90.129 73.424 90.9517C66.2121 91.3566 58.7785 89.5283 52.5936 85.3623C46.9105 81.5358 41.099 77.4482 38.4149 70.4613C35.2991 62.3252 39.3485 51.538 44.4715 46.8366C47.2839 44.2508 51.0532 42.0829 54.6241 41.3254C61.0541 39.9672 65.9437 43.2191 69.503 44.4467C71.055 44.9821 69.4329 42.4094 67.9976 41.3385C54.9042 31.6091 36.3027 48.025 33.6537 62.6386C32.16 70.8792 37.7031 77.9052 42.9078 82.7373C50.0029 89.3062 57.6349 93.3286 66.7722 94.6345C74.6493 95.7577 82.1996 94.3211 88.8046 89.3062C95.398 84.3044 99.6924 75.8157 99.9725 66.9352C100.241 58.2506 96.5766 49.2526 90.0999 44.3944C87.0891 42.1351 83.1448 41.234 79.5856 41.6781C75.5712 42.1743 70.4132 43.4933 66.8189 40.8422C66.2354 40.4243 65.4302 41.3124 65.9554 41.9001Z" fill="#E5411C"/>
<path d="M65.5119 93.6942C68.7327 89.9461 71.8019 86.6551 72.9455 81.3529C74.1475 75.8287 71.4401 70.0564 66.4338 68.5154C60.6573 66.7393 54.5307 71.7803 54.6241 78.5843C54.6591 81.1701 55.1492 82.9201 56.0711 85.2316C55.5927 83.9387 55.5577 83.8473 55.9428 84.9835C56.2812 85.9368 56.643 86.8771 57.0281 87.8043C56.3395 86.1327 58.02 90.5468 57.95 90.364C58.2884 91.2259 58.7202 91.9965 59.1986 92.78C60.6223 95.1177 63.6097 95.9013 65.5119 93.6942Z" fill="#F46F40"/>
<g opacity="0.55">
<path opacity="0.55" d="M68.3823 44.6041C67.0053 46.5238 66.8302 49.2794 65.8967 51.5256C64.6363 54.5554 62.6758 56.88 61.2171 59.714C59.1749 63.6579 64.1929 68.9471 67.7405 67.4322C74.4972 64.546 71.4514 51.8521 72.1516 45.7402C70.2845 45.7402 68.4056 45.7402 66.5385 45.7402C66.6435 49.5275 65.885 53.0928 65.2198 56.7886C65.0914 57.4808 65.0331 58.199 64.9281 58.8912C64.8581 59.3613 64.7647 59.8315 64.648 60.3016C64.2396 61.3856 64.823 61.2811 66.3868 59.9882C62.9442 58.6561 61.4738 64.768 64.8931 66.074C68.2423 67.3538 69.841 63.5535 70.3545 60.5628C71.2064 55.7047 72.28 50.7159 72.1516 45.7402C72.0466 41.5742 66.9819 41.8354 66.5385 45.7402C65.9433 50.9641 67.227 56.4491 65.78 61.5684C65.4299 62.1169 65.78 62.0255 66.8536 61.2811C66.6202 61.1505 66.3985 61.0199 66.1651 60.8763C66.1301 62.2997 66.3518 62.4173 66.8186 61.2289C67.8455 59.505 68.639 57.9509 69.3626 56.0312C70.7046 52.4398 71.6731 48.2868 69.6776 44.7869C69.4092 44.3429 68.7324 44.1208 68.3823 44.6041Z" fill="#FFF29A"/>
</g>
<path d="M68.2193 46.132C67.7059 47.1898 67.3441 48.326 66.9707 49.4491C66.6089 50.5591 66.0955 51.6953 66.0138 52.8837C65.9671 53.5759 66.7256 53.7587 67.1224 53.3931C68.6978 51.9173 69.0012 48.5219 69.0596 46.3801C69.0712 45.8969 68.4294 45.701 68.2193 46.132Z" fill="#FFE76D"/>
<path d="M69.2929 51.9957C68.4644 54.2289 69.2929 56.8931 67.9742 58.9304C66.8306 60.7065 69.1762 62.2083 70.4599 61.0721C72.5721 59.2177 70.8567 54.242 70.2382 51.9827C70.0865 51.4342 69.468 51.5125 69.2929 51.9957Z" fill="#FFE76D"/>
<path d="M63.4582 60.0921C63.0031 61.0977 62.4547 62.0772 62.0579 63.122C61.7195 63.997 61.9412 65.0548 62.8631 65.329C63.75 65.6033 64.5085 64.8458 64.5669 63.8794C64.6252 62.8085 64.6719 61.7899 64.8236 60.7321C64.9403 59.8701 63.8667 59.191 63.4582 60.0921Z" fill="#FFE76D"/>
<path d="M75.9559 66.1C76.9594 66.8575 80.7754 67.8892 80.7754 65.5385C80.7754 64.2717 79.5034 63.9452 78.6165 64.1541C77.6946 64.3631 76.8077 64.7549 75.9559 65.1989C75.6174 65.3817 75.6874 65.9041 75.9559 66.1Z" fill="#FEC085"/>
<path d="M74.0195 70.1742C74.8598 70.7096 75.7 71.1798 76.6802 70.9839C77.2054 70.8794 77.5788 70.2264 77.5788 69.6649C77.5788 68.9988 77.1937 68.594 76.6802 68.3458C75.9684 68.0193 74.9298 68.1108 74.2296 68.3981C73.5644 68.6984 73.3194 69.7301 74.0195 70.1742Z" fill="#FEC085"/>
<path d="M77.5669 62.7169C77.8353 62.5863 78.1154 62.4818 78.3721 62.3251C79.5857 61.5546 78.3604 59.3606 77.2985 60.2747C76.9834 60.549 76.75 60.8363 76.4933 61.1758C75.8865 62.0769 76.645 63.1739 77.5669 62.7169Z" fill="#FEC085"/>
<path d="M55.3946 60.7972C55.6513 61.7245 56.4215 62.273 57.2618 62.3644C58.382 62.4819 58.8138 60.8234 58.137 60.0137C57.6819 59.4782 56.9233 59.2301 56.2698 59.426C55.768 59.5827 55.2196 60.1573 55.3946 60.7972Z" fill="#FEC085"/>
<path d="M56.4793 67.8369C56.9811 67.876 57.728 67.9283 58.1598 67.6148C58.6382 67.2753 59.0583 66.7268 58.8833 66.0477C58.7199 65.3817 58.1247 65.0029 57.5179 65.0029C56.9694 65.0029 56.4093 65.3686 55.9308 65.6167C54.9039 66.126 55.5107 67.7716 56.4793 67.8369Z" fill="#FEC085"/>
<g opacity="0.41">
<path opacity="0.41" d="M67.6241 43.1805C63.0379 40.9735 58.0199 39.0276 53.142 40.2421C51.0065 40.7776 49.0226 41.9137 47.2255 43.3111C42.4409 47.0331 38.905 52.7923 37.7847 59.1915C36.6644 65.5907 38.0298 72.5384 41.6474 77.6447C43.3395 80.0346 45.475 81.9935 47.739 83.7043C55.8027 89.777 65.7103 92.7415 75.4078 91.9579C77.485 91.7882 79.5622 91.4486 81.511 90.652C85.3153 89.0979 88.3961 85.8722 91.0218 82.4114C92.4922 80.4655 93.8575 78.3891 94.9545 76.1428C95.7714 74.4581 96.4365 72.682 96.9266 70.8406C99.0505 62.9527 97.6502 53.4976 92.0604 48.1301C87.9177 44.16 82.0011 42.9324 76.6681 44.2253C75.5128 44.4995 74.3692 44.8913 73.1905 44.9174C71.2417 44.9697 69.3979 44.0424 67.6241 43.1805Z" fill="#FD6F3D"/>
</g>
<path d="M63.4117 52.8569C59.1989 45.9484 51.3336 49.7879 47.8093 55.2598C43.9116 61.3064 46.9458 73.3081 53.6208 75.1887C55.2312 75.6458 56.3282 74.0917 56.0948 72.4201C55.523 68.3455 51.7887 65.4724 52.6172 61.0975C53.5041 56.4744 57.8336 57.6759 60.7393 58.0546C63.0382 58.355 64.6487 54.8811 63.4117 52.8569Z" fill="#DB270C"/>
<path d="M74.976 59.8444C76.7031 60.3929 78.4653 60.419 80.1107 61.3332C82.3863 62.5869 81.7795 65.904 81.4994 68.1633C81.1143 71.2062 80.6358 72.8648 77.9518 74.1315C75.8163 75.1371 73.494 75.4897 71.4051 76.6259C70.3082 77.2266 70.6466 79.1203 71.7319 79.4468C79.0721 81.6408 88.0928 76.5606 89.178 67.7324C90.3217 58.3948 83.6583 50.2848 74.9877 52.5963C71.6735 53.4844 71.8602 58.8519 74.976 59.8444Z" fill="#DB270C"/>
<path d="M67.2275 43.0364C68.4762 44.8517 71.1952 46.5363 73.1557 45.1129C73.8559 44.6035 73.8092 43.5849 73.1557 43.0625C72.2922 42.3703 71.4753 42.1875 70.4367 42.07C69.3514 41.9524 68.5929 41.7304 67.5426 42.1614C67.2509 42.2789 66.9941 42.7099 67.2275 43.0364Z" fill="#335606"/>
<path d="M76.7027 53.4835C77.1928 53.144 77.8813 53.366 78.1497 53.9406C78.5815 54.8548 78.1381 55.9649 77.6363 56.8268C77.1928 57.5842 76.691 58.2895 76.1309 58.9424C75.5357 57.4667 75.5007 56.2914 75.9325 54.7373C76.0025 54.4891 76.1192 53.8884 76.7027 53.4835Z" fill="#EC801E"/>
<g opacity="0.32">
<path opacity="0.32" d="M76.1546 58.3942C76.6214 57.7674 77.0065 57.1144 77.2399 56.3308C77.4733 55.5473 77.8 54.7506 77.7767 53.9017C77.7067 52.2301 75.6761 52.1779 75.4778 53.8234C75.3144 55.2469 75.4544 56.6834 75.3261 58.1069C75.2677 58.6554 75.8979 58.7338 76.1546 58.3942Z" fill="#FFC188"/>
</g>
<g opacity="0.36">
<path opacity="0.36" d="M76.6098 56.4224C76.8899 55.7563 77.24 55.1295 77.31 54.3981C77.345 54.0064 76.9249 53.8627 76.6682 53.9933C75.8396 54.4112 76.038 55.4298 76.0847 56.2657C76.108 56.553 76.4815 56.7358 76.6098 56.4224Z" fill="white"/>
</g>
<path d="M62.0233 51.1462C62.4317 50.6892 63.1436 50.7283 63.517 51.2115C64.1238 51.9951 63.9254 53.1835 63.5987 54.1499C63.3186 54.9988 62.9685 55.8085 62.5601 56.5921C61.6732 55.2992 61.4048 54.1761 61.5098 52.5567C61.5448 52.2955 61.5331 51.6817 62.0233 51.1462Z" fill="#EC801E"/>
<g opacity="0.32">
<path opacity="0.32" d="M62.4781 56.0697C62.8048 55.3384 63.0499 54.607 63.1199 53.7843C63.1899 52.9615 63.3533 52.0996 63.1433 51.2899C62.7348 49.6836 60.7393 50.1537 60.891 51.7992C61.0194 53.2358 61.4512 54.5809 61.6145 56.0044C61.6846 56.5399 62.303 56.4615 62.4781 56.0697Z" fill="#FFC188"/>
</g>
<g opacity="0.36">
<path opacity="0.36" d="M62.5368 54.0198C62.6535 53.3668 62.8868 52.6616 62.8168 51.9956C62.7818 51.6952 62.4667 51.3426 62.175 51.5907C61.3931 52.2698 61.7432 53.1317 61.9999 54.0329C62.07 54.3071 62.4784 54.3463 62.5368 54.0198Z" fill="white"/>
</g>
<path d="M57.7278 51.2509C58.0312 50.7938 58.638 50.7285 59.0231 51.0942C59.6416 51.6819 59.6066 52.7397 59.4432 53.6147C59.3032 54.3852 59.1048 55.1426 58.8364 55.874C57.9261 54.8945 57.5644 53.9542 57.4594 52.5438C57.4477 52.3087 57.366 51.7863 57.7278 51.2509Z" fill="#EC801E"/>
<g opacity="0.32">
<path opacity="0.32" d="M58.6963 55.4167C58.8947 54.7376 59.0231 54.0716 58.9881 53.3533C58.9531 52.635 58.9881 51.8645 58.7197 51.1985C58.1829 49.8794 56.5141 50.5716 56.8409 51.969C57.1209 53.1835 57.6461 54.2805 57.9495 55.482C58.0662 55.9521 58.5913 55.7824 58.6963 55.4167Z" fill="#FFC188"/>
</g>
<g opacity="0.36">
<path opacity="0.36" d="M58.5446 53.6148C58.5912 53.0271 58.7546 52.3611 58.5562 51.7995C58.4395 51.46 58.1011 51.3424 57.8444 51.5905C57.1792 52.2435 57.6927 53.0924 58.0194 53.7715C58.1595 54.0719 58.5212 53.9021 58.5446 53.6148Z" fill="white"/>
</g>
<g opacity="0.48">
<g opacity="0.48">
<path opacity="0.48" d="M51.0764 53.5372C51.1347 53.1062 51.5198 52.8059 51.9049 52.8973C52.5117 53.041 52.8385 53.7723 53.0135 54.4253C53.1652 54.9999 53.2819 55.6006 53.352 56.2014C52.4184 55.9141 51.8582 55.4309 51.3331 54.5167C51.2398 54.373 51.0064 54.0465 51.0764 53.5372Z" fill="#EC801E"/>
<g opacity="0.32">
<path opacity="0.32" d="M53.1074 55.9523C53.014 55.4168 52.8856 54.9075 52.6289 54.4374C52.3605 53.9672 52.1271 53.4448 51.7303 53.0922C50.9368 52.4131 50.0382 53.5754 50.7151 54.3851C51.2986 55.0903 52.0221 55.6258 52.6172 56.3049C52.8506 56.5661 53.154 56.2396 53.1074 55.9523Z" fill="#FFC188"/>
</g>
</g>
<g opacity="0.36">
<path opacity="0.36" d="M52.4889 54.8297C52.3372 54.3204 52.2671 53.6674 51.8004 53.4062C51.5903 53.2887 51.3569 53.3409 51.2169 53.576C50.7618 54.3726 51.5436 54.8558 52.0804 55.1823C52.2788 55.3129 52.5706 55.1039 52.4889 54.8297Z" fill="white"/>
</g>
</g>
<g opacity="0.48">
<g opacity="0.48">
<path opacity="0.48" d="M84.615 56.736C85.0001 56.7491 85.3152 57.154 85.2685 57.5849C85.2102 58.2771 84.5917 58.708 84.0199 58.9823C83.5181 59.2174 83.0046 59.4002 82.4795 59.5439C82.6312 58.473 83.0046 57.8069 83.7632 57.1148C83.8915 56.9972 84.1599 56.7099 84.615 56.736Z" fill="#EC801E"/>
<g opacity="0.32">
<path opacity="0.32" d="M82.6891 59.2433C83.1559 59.0866 83.5877 58.8907 83.9845 58.5512C84.3813 58.2116 84.8247 57.8982 85.0814 57.415C85.5949 56.4616 84.4746 55.5867 83.8328 56.4225C83.2726 57.1538 82.8759 58.0027 82.3274 58.7471C82.1057 59.0213 82.4324 59.3217 82.6891 59.2433Z" fill="#FFC188"/>
</g>
</g>
<g opacity="0.36">
<path opacity="0.36" d="M83.6578 58.4207C84.1246 58.1856 84.6381 58.042 84.8365 57.4543C84.8948 57.2714 84.8015 57.0103 84.6381 56.9188C83.8329 56.4748 83.4945 57.389 83.2494 58.0681C83.1444 58.3554 83.4595 58.5121 83.6578 58.4207Z" fill="white"/>
</g>
</g>
<g opacity="0.26">
<g opacity="0.26">
<path opacity="0.26" d="M87.5088 67.0275C87.6955 67.4062 87.5555 67.9156 87.2054 68.0984C86.6453 68.3988 85.9918 68.0462 85.49 67.6413C85.0465 67.2887 84.6381 66.8969 84.2646 66.4659C85.1632 66.0611 85.8634 66.0611 86.7853 66.4268C86.937 66.479 87.2871 66.5835 87.5088 67.0275Z" fill="#EC801E"/>
<g opacity="0.32">
<path opacity="0.32" d="M84.5918 66.4785C84.9536 66.8441 85.3387 67.1576 85.7938 67.3535C86.2606 67.5494 86.7274 67.8236 87.2292 67.8105C88.2328 67.8105 88.3145 66.2826 87.3342 66.0997C86.4823 65.943 85.6304 66.0083 84.7786 65.8647C84.4518 65.8255 84.3935 66.2826 84.5918 66.4785Z" fill="#FFC188"/>
</g>
</g>
<g opacity="0.36">
<path opacity="0.36" d="M85.7116 66.975C86.1434 67.3014 86.5168 67.7193 87.0653 67.6018C87.2404 67.5626 87.3921 67.3406 87.3804 67.1447C87.2987 66.1391 86.4468 66.2828 85.7817 66.4134C85.5249 66.4526 85.5366 66.8444 85.7116 66.975Z" fill="white"/>
</g>
</g>
<g opacity="0.26">
<g opacity="0.26">
<path opacity="0.26" d="M49.0922 68.0979C48.7304 67.9543 48.5437 67.458 48.7071 67.0531C48.9638 66.4263 49.664 66.2173 50.2825 66.1651C50.8193 66.1129 51.3678 66.1259 51.9046 66.1781C51.4611 67.1446 50.9127 67.6408 50.0024 68.0326C49.8624 68.0979 49.524 68.2677 49.0922 68.0979Z" fill="#EC801E"/>
<g opacity="0.32">
<path opacity="0.32" d="M51.6364 66.3871C51.1462 66.374 50.6795 66.4132 50.2127 66.596C49.7459 66.7788 49.2324 66.9225 48.8473 67.2882C48.0888 68.0195 48.9057 69.2471 49.7576 68.6725C50.4927 68.1762 51.1112 67.5102 51.8348 67.0009C52.1265 66.7919 51.9048 66.4001 51.6364 66.3871Z" fill="#FFC188"/>
</g>
</g>
<g opacity="0.36">
<path opacity="0.36" d="M50.5512 66.8309C50.0844 66.8832 49.4775 66.8179 49.1625 67.275C49.0224 67.4709 48.9874 67.7451 49.1625 67.941C49.7693 68.6201 50.3528 67.8888 50.7495 67.3664C50.8779 67.1705 50.8079 66.7918 50.5512 66.8309Z" fill="white"/>
</g>
</g>
<g opacity="0.26">
<g opacity="0.26">
<path opacity="0.26" d="M83.1685 75.9459C83.0518 76.3639 82.6201 76.5859 82.2583 76.4161C81.6865 76.168 81.4648 75.3844 81.3947 74.6922C81.3247 74.0915 81.3014 73.4908 81.3364 72.877C82.2233 73.334 82.6901 73.9217 83.0752 74.9142C83.1335 75.0971 83.3086 75.4627 83.1685 75.9459Z" fill="#EC801E"/>
<g opacity="0.32">
<path opacity="0.32" d="M81.5345 73.191C81.5461 73.7395 81.5928 74.2619 81.7795 74.7712C81.9662 75.2936 82.1063 75.8552 82.4564 76.26C83.1449 77.0697 84.1951 76.1033 83.6583 75.1761C83.1799 74.3664 82.5614 73.7134 82.0713 72.9298C81.8729 72.6164 81.5228 72.8906 81.5345 73.191Z" fill="#FFC188"/>
</g>
</g>
<g opacity="0.36">
<path opacity="0.36" d="M81.9778 74.4579C82.0595 75.0325 82.0362 75.6071 82.4913 75.9858C82.643 76.1034 82.8881 76.0511 83.0047 75.9075C83.5882 75.1892 82.9464 74.5885 82.4329 74.1575C82.2112 73.9616 81.9311 74.1314 81.9778 74.4579Z" fill="white"/>
</g>
</g>
<g opacity="0.58">
<g opacity="0.58">
<path opacity="0.58" d="M53.0255 52.4266C53.1655 51.8911 53.7256 51.5777 54.1924 51.7736C54.951 52.087 55.2427 53.0926 55.3594 53.9806C55.4644 54.7642 55.4994 55.5478 55.4878 56.3314C54.3325 55.7698 53.7023 55.0254 53.1772 53.7325C53.0955 53.5366 52.8621 53.0665 53.0255 52.4266Z" fill="#EC801E"/>
<g opacity="0.32">
<path opacity="0.32" d="M55.2194 55.9652C55.196 55.2469 55.1144 54.5809 54.8576 53.9279C54.6009 53.2618 54.4025 52.5305 53.9357 52.0081C53.0255 50.9764 51.6718 52.2693 52.407 53.4447C53.0372 54.4764 53.8774 55.3122 54.5309 56.3178C54.7876 56.7096 55.2311 56.3569 55.2194 55.9652Z" fill="#FFC188"/>
</g>
</g>
<g opacity="0.36">
<path opacity="0.36" d="M54.5306 54.3716C54.3789 53.7447 54.3205 53.0787 53.9238 52.5824C53.7487 52.3473 53.387 52.4257 53.2586 52.6738C52.8151 53.5619 53.5153 54.1365 54.0638 54.6719C54.2622 54.8678 54.6006 54.685 54.5306 54.3716Z" fill="white"/>
</g>
</g>
<path d="M48.8126 56.6311C48.6142 56.1088 48.871 55.4819 49.3494 55.2991C50.108 54.9987 50.9132 55.5733 51.5083 56.1741C52.0335 56.6964 52.5119 57.2841 52.9437 57.8979C51.73 58.2766 50.8198 58.1591 49.6878 57.5453C49.4895 57.4278 49.046 57.2449 48.8126 56.6311Z" fill="#EC801E"/>
<g opacity="0.32">
<path opacity="0.32" d="M52.512 57.8063C52.0919 57.2709 51.6368 56.8138 51.0767 56.4873C50.5049 56.1608 49.933 55.7298 49.2795 55.6515C47.9842 55.4948 47.6808 57.4537 48.9178 57.8455C49.9914 58.185 51.1117 58.2373 52.1853 58.5507C52.6054 58.6813 52.7454 58.0936 52.512 57.8063Z" fill="#FFC188"/>
</g>
<g opacity="0.36">
<path opacity="0.36" d="M51.053 57.0365C50.6212 56.6839 50.2011 56.2137 49.6643 56.1092C49.3376 56.0439 49.0808 56.3182 49.1392 56.6969C49.3025 57.6764 50.2244 57.598 50.913 57.6242C51.2047 57.6372 51.2631 57.2062 51.053 57.0365Z" fill="white"/>
</g>
<g opacity="0.58">
<g opacity="0.58">
<path opacity="0.58" d="M47.4943 62.156C47.0975 61.8165 47.0508 61.1243 47.3776 60.7064C47.9144 60.0273 48.8596 60.0926 49.6415 60.3016C50.33 60.4844 50.9952 60.7195 51.6487 61.0329C50.7501 62.0385 49.9099 62.4172 48.6496 62.4956C48.4395 62.4956 47.9727 62.5739 47.4943 62.156Z" fill="#EC801E"/>
<g opacity="0.32">
<path opacity="0.32" d="M51.24 61.1634C50.6332 60.9284 50.0497 60.7716 49.4079 60.7978C48.7661 60.8239 48.0775 60.7586 47.4824 61.0459C46.2921 61.6205 46.8756 63.488 48.1242 63.1615C49.2095 62.8742 50.2131 62.3127 51.2867 61.9992C51.7068 61.8948 51.5668 61.294 51.24 61.1634Z" fill="#FFC188"/>
</g>
</g>
<g opacity="0.36">
<path opacity="0.36" d="M49.6292 61.3072C49.1041 61.2419 48.5206 61.046 48.0071 61.255C47.692 61.3856 47.6104 61.7643 47.8204 62.0516C48.3922 62.796 49.1624 62.2344 49.7692 61.8949C50.0376 61.7251 49.8743 61.3333 49.6292 61.3072Z" fill="white"/>
</g>
</g>
<path d="M47.727 65.4986C47.2952 65.1982 47.1902 64.5191 47.4819 64.0621C47.9487 63.3307 48.894 63.2785 49.6992 63.396C50.3994 63.5005 51.0879 63.6572 51.753 63.8923C50.9478 64.9893 50.1426 65.4594 48.894 65.6945C48.6956 65.7206 48.2288 65.8512 47.727 65.4986Z" fill="#B56217"/>
<g opacity="0.32">
<path opacity="0.32" d="M51.3681 64.0879C50.7496 63.9181 50.1428 63.8398 49.5126 63.9312C48.8708 64.0226 48.1939 64.0487 47.6104 64.4013C46.4785 65.1066 47.2253 66.9088 48.439 66.4386C49.5009 66.0338 50.4462 65.3547 51.4848 64.9237C51.8932 64.7539 51.6948 64.1793 51.3681 64.0879Z" fill="#C8976B"/>
</g>
<g opacity="0.36">
<path opacity="0.36" d="M49.7927 64.4012C49.2092 64.3882 48.614 64.2837 48.0772 64.571C47.8322 64.7016 47.8088 65.1195 47.9955 65.3154C48.649 66.0206 49.3259 65.4199 49.9327 64.9759C50.1661 64.8191 50.0844 64.4012 49.7927 64.4012Z" fill="white"/>
</g>
<path d="M50.0501 71.1409C49.56 71.0234 49.2449 70.4226 49.385 69.8872C49.6067 69.0252 50.4819 68.6073 51.2638 68.4114C51.9523 68.2417 52.6525 68.1241 53.3527 68.085C52.9326 69.417 52.3257 70.1745 51.2171 70.8666C51.0304 70.9842 50.6336 71.2715 50.0501 71.1409Z" fill="#EC931E"/>
<g opacity="0.32">
<path opacity="0.32" d="M53.0367 68.4115C52.4065 68.4898 51.8114 68.6466 51.2396 68.973C50.6677 69.3126 50.0376 69.5868 49.6058 70.1484C48.7539 71.2454 50.0142 72.6558 51.0062 71.7417C51.8814 70.9581 52.5582 69.9525 53.3984 69.1428C53.7252 68.8424 53.3751 68.3723 53.0367 68.4115Z" fill="#FFCC88"/>
</g>
<g opacity="0.36">
<path opacity="0.36" d="M51.6834 69.299C51.1466 69.508 50.5398 69.6255 50.1313 70.0956C49.9563 70.2915 49.9563 70.7094 50.213 70.84C51.0882 71.2841 51.52 70.4482 51.9868 69.7561C52.1385 69.5471 51.8934 69.2207 51.6834 69.299Z" fill="white"/>
</g>
<path d="M52.7336 74.2486C52.3368 74.2616 51.9984 73.8698 52.0101 73.4258C52.0334 72.7206 52.6402 72.2243 53.212 71.8978C53.7138 71.6236 54.2273 71.3885 54.7641 71.2188C54.6591 72.3288 54.3207 73.0471 53.5855 73.8045C53.4571 73.9221 53.2004 74.2355 52.7336 74.2486Z" fill="#EC801E"/>
<g opacity="0.32">
<path opacity="0.32" d="M54.5775 71.5316C54.099 71.7275 53.6673 71.9626 53.2938 72.3413C52.9087 72.72 52.4653 73.0596 52.2202 73.582C51.7418 74.6006 52.9437 75.4234 53.5622 74.5223C54.099 73.7387 54.4608 72.8245 54.9743 72.0279C55.1843 71.7145 54.8342 71.4271 54.5775 71.5316Z" fill="#FFC188"/>
</g>
<g opacity="0.36">
<path opacity="0.36" d="M53.6553 72.4458C53.2002 72.7201 52.6868 72.9029 52.5 73.5036C52.4184 73.7648 52.5934 73.9999 52.7918 74.0913C53.5737 74.4439 53.8654 73.4253 54.0521 72.8115C54.1455 72.5242 53.8537 72.3283 53.6553 72.4458Z" fill="white"/>
</g>
<path d="M55.7215 76.4683C55.3364 76.5859 54.928 76.2986 54.8346 75.8676C54.7063 75.1755 55.1847 74.5225 55.6632 74.0654C56.0833 73.6605 56.5384 73.2949 57.0169 72.9814C57.1686 74.0915 56.9935 74.8751 56.445 75.8154C56.3517 75.946 56.165 76.3247 55.7215 76.4683Z" fill="#EC801E"/>
<g opacity="0.32">
<path opacity="0.32" d="M56.9119 73.3344C56.4918 73.6479 56.1301 74.0005 55.8383 74.4706C55.5466 74.9407 55.1965 75.3978 55.0798 75.9724C54.8464 77.0956 56.1884 77.5527 56.5852 76.5079C56.9353 75.5937 57.0753 74.6143 57.4021 73.7001C57.5304 73.3344 57.1337 73.1516 56.9119 73.3344Z" fill="#FFC188"/>
</g>
<g opacity="0.36">
<path opacity="0.36" d="M56.2118 74.4699C55.8267 74.8748 55.3715 75.1882 55.3249 75.8151C55.3015 76.0893 55.5349 76.2591 55.745 76.2852C56.5852 76.4027 56.6319 75.3319 56.6785 74.6789C56.7019 74.4046 56.3751 74.3002 56.2118 74.4699Z" fill="white"/>
</g>
<path d="M81.6275 54.9474C82.1876 54.8038 82.7711 55.2609 82.8645 55.9008C83.0045 56.9194 82.2693 57.8205 81.5341 58.4474C80.8923 58.9959 80.2155 59.4791 79.4919 59.897C79.3519 58.2776 79.667 57.1675 80.5305 55.8485C80.6706 55.6396 80.9623 55.1172 81.6275 54.9474Z" fill="#B56217"/>
<g opacity="0.32">
<path opacity="0.32" d="M79.6787 59.3875C80.3088 58.9696 80.8573 58.4864 81.3124 57.8334C81.7675 57.1804 82.3043 56.5405 82.5261 55.7308C82.9462 54.1376 81.0324 53.3409 80.3789 54.8167C79.807 56.1096 79.527 57.5069 78.9902 58.7998C78.7684 59.3222 79.3403 59.6226 79.6787 59.3875Z" fill="#C8976B"/>
</g>
<g opacity="0.36">
<path opacity="0.36" d="M80.6938 57.6768C81.1139 57.1805 81.6274 56.7365 81.8958 56.1227C82.0242 55.8223 81.8725 55.3783 81.534 55.4044C80.5538 55.4958 80.4488 56.4753 80.2387 57.3634C80.157 57.6768 80.5071 57.9119 80.6938 57.6768Z" fill="white"/>
</g>
<path d="M86.6568 59.2445C87.1937 59.4926 87.4387 60.237 87.182 60.8117C86.7852 61.7389 85.7233 62.0001 84.8014 62.0523C83.9962 62.0915 83.191 62.0654 82.3857 61.9478C83.0976 60.5374 83.9261 59.8061 85.2915 59.2837C85.5249 59.2053 86.015 58.9572 86.6568 59.2445Z" fill="#EC801E"/>
<g opacity="0.32">
<path opacity="0.32" d="M82.7943 61.6469C83.5295 61.6992 84.218 61.66 84.9181 61.4118C85.63 61.1637 86.3885 60.9809 86.9837 60.4585C88.1506 59.4137 86.972 57.5462 85.6883 58.3428C84.5681 59.035 83.6228 60.0145 82.5142 60.7327C82.0824 61.0201 82.3975 61.6208 82.7943 61.6469Z" fill="#FFC188"/>
</g>
<g opacity="0.36">
<path opacity="0.36" d="M84.5211 60.9028C85.128 60.7722 85.7698 60.72 86.3066 60.3804C86.575 60.1976 86.5867 59.7405 86.3066 59.5577C85.4664 59.0223 84.8596 59.8058 84.2527 60.3804C84.031 60.5894 84.2761 60.9551 84.5211 60.9028Z" fill="white"/>
</g>
<path d="M87.6728 63.5787C88.0579 63.866 88.1279 64.4929 87.8478 64.8977C87.3927 65.5376 86.5291 65.5507 85.8056 65.407C85.1755 65.2895 84.5453 65.1067 83.9385 64.8585C84.7087 63.8921 85.4555 63.4873 86.6108 63.3436C86.7975 63.3175 87.2177 63.2261 87.6728 63.5787Z" fill="#EC801E"/>
<g opacity="0.32">
<path opacity="0.32" d="M84.3 64.7022C84.8602 64.885 85.4086 64.9895 85.9921 64.9242C86.5756 64.8589 87.2058 64.8719 87.7426 64.5716C88.8045 63.9839 88.186 62.2992 87.0541 62.6779C86.0738 63.0044 85.1869 63.579 84.2183 63.9316C83.8449 64.0753 83.9966 64.6107 84.3 64.7022Z" fill="#FFC188"/>
</g>
<g opacity="0.36">
<path opacity="0.36" d="M85.7468 64.5059C86.2836 64.5582 86.8437 64.7149 87.3338 64.4276C87.5906 64.2709 87.5906 63.9052 87.4155 63.6832C86.8671 62.9649 86.1552 63.5395 85.5951 63.9313C85.3617 64.1011 85.4784 64.4798 85.7468 64.5059Z" fill="white"/>
</g>
<path d="M87.0663 69.2865C87.3813 69.7566 87.2646 70.4618 86.8212 70.7753C86.121 71.2846 85.1874 70.932 84.4523 70.488C83.8104 70.0962 83.2036 69.6522 82.6201 69.1428C83.7637 68.4115 84.709 68.294 85.9927 68.6074C86.2027 68.6596 86.6928 68.7249 87.0663 69.2865Z" fill="#EC931E"/>
<g opacity="0.32">
<path opacity="0.32" d="M83.0757 69.1302C83.6242 69.5481 84.1726 69.8876 84.8261 70.0574C85.4796 70.2272 86.1448 70.5014 86.8217 70.397C88.1637 70.2011 88.0353 68.1376 86.705 68.0723C85.538 68.0201 84.406 68.2813 83.2507 68.2682C82.784 68.2552 82.7723 68.8951 83.0757 69.1302Z" fill="#FFCC88"/>
</g>
<g opacity="0.36">
<path opacity="0.36" d="M84.7206 69.4829C85.2458 69.7049 85.7592 70.0575 86.3311 70.0314C86.6695 70.0183 86.8445 69.6527 86.6928 69.3131C86.296 68.399 85.4208 68.7385 84.709 68.8822C84.4289 68.9344 84.4989 69.3784 84.7206 69.4829Z" fill="white"/>
</g>
<g opacity="0.58">
<g opacity="0.58">
<path opacity="0.58" d="M85.4202 73.9359C85.4553 74.5235 85.0001 75.0329 84.475 75.0329C83.6348 75.0198 83.0396 74.1579 82.6429 73.3351C82.3044 72.6168 82.0127 71.8594 81.7793 71.0889C83.0863 71.1933 83.9382 71.6635 84.8601 72.7213C85.0118 72.878 85.3852 73.2437 85.4202 73.9359Z" fill="#EC801E"/>
<g opacity="0.32">
<path opacity="0.32" d="M82.1642 71.3243C82.4093 72.0164 82.701 72.6302 83.1561 73.1787C83.6112 73.7272 84.043 74.3672 84.6498 74.6936C85.8635 75.3466 86.7854 73.5575 85.7001 72.6825C84.7549 71.925 83.6813 71.4288 82.7243 70.6974C82.3626 70.4362 82.0358 70.9586 82.1642 71.3243Z" fill="#FFC188"/>
</g>
</g>
<g opacity="0.36">
<path opacity="0.36" d="M83.3425 72.6038C83.681 73.1392 83.961 73.7791 84.4745 74.1187C84.6846 74.2623 85.058 74.1448 85.093 73.8314C85.2214 72.7735 84.4512 72.5254 83.7276 72.1728C83.4942 72.0683 83.1675 72.3164 83.3425 72.6038Z" fill="white"/>
</g>
</g>
<g opacity="0.58">
<g opacity="0.58">
<path opacity="0.58" d="M79.0138 80.2798C78.7687 80.7891 78.1386 80.972 77.6951 80.6585C76.9833 80.1623 76.8782 79.0653 76.9366 78.125C76.9833 77.3153 77.0883 76.5056 77.2633 75.709C78.3253 76.5709 78.8271 77.472 79.1071 78.9086C79.1655 79.1306 79.3055 79.666 79.0138 80.2798Z" fill="#EC801E"/>
<g opacity="0.32">
<path opacity="0.32" d="M77.473 76.1422C77.3563 76.8735 77.3213 77.5787 77.4497 78.3101C77.578 79.0414 77.6481 79.838 78.0098 80.478C78.7333 81.7578 80.3554 80.7653 79.842 79.3809C79.3985 78.1795 78.71 77.1217 78.2432 75.9463C78.0565 75.4892 77.5314 75.7504 77.473 76.1422Z" fill="#FFC188"/>
</g>
</g>
<g opacity="0.36">
<path opacity="0.36" d="M77.8704 77.9185C77.9054 78.5845 77.847 79.2767 78.1271 79.8774C78.2438 80.1255 78.6172 80.2039 78.7923 79.9688C79.3874 79.1461 78.839 78.467 78.3838 77.7617C78.2438 77.5397 77.8587 77.592 77.8704 77.9185Z" fill="white"/>
</g>
</g>
<path d="M74.1355 81.327C73.8204 81.6405 73.307 81.5882 73.0386 81.2095C72.6185 80.6088 72.8169 79.7468 73.0853 79.0547C73.3187 78.4409 73.5987 77.8662 73.9255 77.3047C74.5323 78.2842 74.684 79.133 74.544 80.3084C74.5323 80.5043 74.509 80.9483 74.1355 81.327Z" fill="#EC801E"/>
<g opacity="0.32">
<path opacity="0.32" d="M73.9834 77.7093C73.715 78.2317 73.5166 78.7541 73.4349 79.3548C73.3533 79.9556 73.2016 80.5824 73.3299 81.1832C73.5633 82.3716 75.0454 82.1235 74.9987 80.9089C74.952 79.8511 74.6953 78.8455 74.6252 77.8008C74.5786 77.3829 74.1234 77.422 73.9834 77.7093Z" fill="#FFC188"/>
</g>
<g opacity="0.36">
<path opacity="0.36" d="M73.7975 79.1852C73.6342 79.7076 73.3308 80.2561 73.4941 80.8177C73.5641 81.0397 73.7975 81.2487 74.0193 81.1442C74.8361 80.7654 74.5794 79.9296 74.3343 79.1852C74.2293 78.8849 73.8909 78.8849 73.7975 79.1852Z" fill="white"/>
</g>
<path d="M81.8258 78.1017C81.6858 78.5326 81.219 78.7416 80.8456 78.5588C80.2504 78.2584 80.052 77.4226 80.0054 76.6912C79.9587 76.0513 79.9587 75.4114 80.017 74.7715C80.9273 75.3069 81.4057 75.9468 81.7791 77.0308C81.8258 77.1875 81.9892 77.5923 81.8258 78.1017Z" fill="#EC801E"/>
<g opacity="0.32">
<path opacity="0.32" d="M80.2042 75.0841C80.1925 75.6718 80.2275 76.2203 80.4026 76.7688C80.5776 77.3304 80.706 77.9311 81.0561 78.3882C81.7446 79.2893 82.9116 78.3229 82.3747 77.3042C81.908 76.4292 81.2661 75.6979 80.7877 74.836C80.601 74.4964 80.2159 74.7707 80.2042 75.0841Z" fill="#FFC188"/>
</g>
<g opacity="0.36">
<path opacity="0.36" d="M80.6353 76.377C80.7053 76.9255 80.6586 77.6046 81.0554 78.0095C81.2187 78.1792 81.4988 78.2054 81.6505 78.0095C82.2223 77.2781 81.6038 76.6513 81.102 76.155C80.9503 75.9983 80.6002 76.0767 80.6353 76.377Z" fill="white"/>
</g>
<path d="M63.9602 75.6334C63.2951 78.4674 62.3382 81.2099 61.5913 84.0046C60.9845 86.29 59.8175 89.1501 61.4863 91.0829C61.9531 91.6314 62.6182 91.5008 63.0967 91.0829C64.8121 89.5941 64.4504 86.2378 64.8238 84.0046C65.2789 81.2752 65.5707 78.6371 65.4423 75.8554C65.3956 74.9282 64.182 74.6801 63.9602 75.6334Z" fill="#F87048"/>
<path d="M61.1008 81.0134C60.3539 82.9463 59.2453 85.2186 59.5371 87.3865C59.5837 87.7522 60.0972 87.7261 60.1789 87.3865C60.3889 86.4332 60.4706 85.4537 60.6924 84.5003C60.9491 83.4033 61.3225 82.3455 61.6843 81.2877C61.801 80.909 61.2408 80.6347 61.1008 81.0134Z" fill="#F87048"/>
<path d="M65.9789 86.4983C65.5472 87.5822 64.9987 88.627 64.4035 89.6065C64.1935 89.9721 64.6836 90.4031 64.9404 90.0766C65.7222 89.1102 66.2007 88.0132 66.5741 86.7856C66.7025 86.3938 66.1307 86.1196 65.9789 86.4983Z" fill="#F87048"/>
<path d="M66.469 52.2828C66.6324 51.8518 66.8074 51.4208 66.9358 50.9638C67.0175 50.6503 66.9241 50.2847 66.7257 50.0626C66.6907 50.0235 66.6674 49.9974 66.6324 49.9582C66.4106 49.71 66.1189 49.71 65.8505 49.8406C65.8038 49.8668 65.7571 49.8798 65.7221 49.9059C65.4537 50.0496 65.3254 50.4022 65.3137 50.7156C65.2904 51.1205 65.3137 51.5253 65.3254 51.9302C65.337 52.557 66.2123 52.9619 66.469 52.2828Z" fill="#F87048"/>
<path d="M72.5485 52.8567C72.1401 52.5955 71.685 53.2093 72.0351 53.6011C72.4668 54.0974 73.0853 53.2093 72.5485 52.8567Z" fill="#F87048"/>
<path d="M83.0284 74.1962C83.0518 74.9537 83.4486 75.7634 84.2188 75.6067C84.4405 75.5675 84.6039 75.241 84.5222 75.0059C84.3821 74.6272 84.0437 74.4444 83.962 74.0526C83.8453 73.4649 83.0168 73.5955 83.0284 74.1962Z" fill="#FEFCFD"/>
<path d="M81.931 78.1015C81.9427 78.3627 81.9894 78.4933 82.1294 78.7023C82.2578 78.8982 82.5378 78.8459 82.6779 78.7023C82.8062 78.5717 82.8646 78.4411 82.8996 78.2452C83.0396 77.4355 81.9077 77.331 81.931 78.1015Z" fill="#FEFCFD"/>
<path d="M83.833 55.9007C84.2881 55.8877 84.6265 55.7571 84.7665 55.2477C84.8482 54.9604 84.5682 54.6078 84.2998 54.7254C84.0197 54.8429 83.9147 55.0388 83.6696 55.2086C83.4012 55.4045 83.4945 55.9007 83.833 55.9007Z" fill="#FEFCFD"/>
<path d="M52.6748 65.9826C52.6632 65.9826 52.6515 65.9956 52.6398 65.9956C52.0097 66.3221 52.4764 67.3146 53.0833 67.184C53.1183 67.184 53.1416 67.171 53.1766 67.171C53.5851 67.0796 53.6668 66.4788 53.41 66.1785C53.2116 65.9434 52.9549 65.8389 52.6748 65.9826Z" fill="#FEFCFD"/>
<path d="M46.3382 70.7094C46.4432 71.3101 46.6649 72.0154 47.1667 72.3418C47.4818 72.5508 47.7852 72.146 47.6335 71.8195C47.4351 71.3493 47.1084 71.0228 46.9567 70.5135C46.8166 70.0825 46.2565 70.2523 46.3382 70.7094Z" fill="#FEFCFD"/>
<path d="M49.3374 52.6089C49.8625 52.7395 50.1659 52.635 50.4927 52.1648C50.6794 51.8906 50.4227 51.4858 50.1543 51.4988C49.9909 51.4988 49.7808 51.4858 49.6291 51.4466C48.9406 51.2768 48.6489 52.4391 49.3374 52.6089Z" fill="#FEFCFD"/>
<path d="M65.5704 51.4602C65.5942 51.4602 65.5942 51.4336 65.5704 51.4336C65.5586 51.4336 65.5586 51.4602 65.5704 51.4602Z" fill="#FEFCFD"/>
<path d="M81.044 55.0901C81.4058 55.0248 81.6275 54.8811 81.7675 54.5024C81.8376 54.2935 81.6275 54.1498 81.4758 54.1759C81.1841 54.2282 81.009 54.411 80.799 54.633C80.5889 54.8289 80.8106 55.1293 81.044 55.0901Z" fill="#FEFCFD"/>
<g opacity="0.41">
<path opacity="0.41" d="M66.5856 57.8332C65.0102 59.1522 64.31 60.4321 63.4931 62.4171C62.5945 64.6111 61.8243 67.2361 62.5829 69.6129C63.3531 72.0159 66.2705 73.4263 68.0209 71.2192C70.5766 67.9935 70.3665 62.169 68.7561 58.4731C68.406 57.6634 67.2391 57.2847 66.5856 57.8332Z" fill="#FFF5CC"/>
</g>
</g>
<defs>
<filter id="filter0_d" x="0" y="0" width="110.986" height="112" filterUnits="userSpaceOnUse" color-interpolation-filters="sRGB">
<feFlood flood-opacity="0" result="BackgroundImageFix"/>
<feColorMatrix in="SourceAlpha" type="matrix" values="0 0 0 0 0 0 0 0 0 0 0 0 0 0 0 0 0 0 127 0" result="hardAlpha"/>
<feOffset dy="6"/>
<feGaussianBlur stdDeviation="5.5"/>
<feColorMatrix type="matrix" values="0 0 0 0 0.917647 0 0 0 0 0.188235 0 0 0 0 0.0901961 0 0 0 0.31 0"/>
<feBlend mode="normal" in2="BackgroundImageFix" result="effect1_dropShadow"/>
<feBlend mode="normal" in="SourceGraphic" in2="effect1_dropShadow" result="shape"/>
</filter>
</defs>
</svg>
